<mxfile host="app.diagrams.net" modified="2021-03-01T19:06:07.115Z" agent="5.0 (Windows NT 10.0; Win64; x64) AppleWebKit/537.36 (KHTML, like Gecko) Chrome/88.0.4324.190 Safari/537.36" etag="CrqW5TZ03Oqa0uKsHo8M" version="14.4.2" type="github">
  <diagram id="LhiFTFrN5k040Mp6TjFW" name="Dashboard">
    <mxGraphModel dx="654" dy="346" grid="1" gridSize="10" guides="1" tooltips="1" connect="1" arrows="1" fold="1" page="1" pageScale="1" pageWidth="1100" pageHeight="850" math="0" shadow="0">
      <root>
        <mxCell id="ibFiL1Bw5MCaEzBGAbg2-0" />
        <mxCell id="ibFiL1Bw5MCaEzBGAbg2-1" parent="ibFiL1Bw5MCaEzBGAbg2-0" />
        <mxCell id="T6vRMujwHowD2wi_SUUD-0" value="" style="rounded=0;whiteSpace=wrap;html=1;fillColor=#3333FF;strokeColor=none;" vertex="1" parent="ibFiL1Bw5MCaEzBGAbg2-1">
          <mxGeometry x="660" y="125.5" width="1180" height="60" as="geometry" />
        </mxCell>
        <mxCell id="ibFiL1Bw5MCaEzBGAbg2-2" value="&lt;font style=&quot;font-size: 14px&quot;&gt;FEEDBACK&lt;/font&gt;" style="rounded=1;whiteSpace=wrap;html=1;fillColor=#FF8000;strokeColor=#FF8000;fontColor=#FFFFFF;" parent="ibFiL1Bw5MCaEzBGAbg2-1" vertex="1">
          <mxGeometry x="1702" y="135.5" width="120" height="40" as="geometry" />
        </mxCell>
        <mxCell id="ibFiL1Bw5MCaEzBGAbg2-3" value="" style="shape=image;html=1;verticalAlign=top;verticalLabelPosition=bottom;labelBackgroundColor=#ffffff;imageAspect=0;aspect=fixed;image=https://cdn3.iconfinder.com/data/icons/social-media-2125/78/bell-128.png;strokeColor=#FF8000;fillColor=#FF8000;fontColor=#FFFFFF;" parent="ibFiL1Bw5MCaEzBGAbg2-1" vertex="1">
          <mxGeometry x="1640" y="135.5" width="37" height="37" as="geometry" />
        </mxCell>
        <mxCell id="ibFiL1Bw5MCaEzBGAbg2-4" value="" style="whiteSpace=wrap;html=1;shape=mxgraph.basic.octagon2;align=center;verticalAlign=middle;dx=12;shadow=0;sketch=0;fontSize=20;fontColor=#808080;fillColor=#FF8000;strokeColor=#FF8000;" parent="ibFiL1Bw5MCaEzBGAbg2-1" vertex="1">
          <mxGeometry x="668" y="130.5" width="56" height="42" as="geometry" />
        </mxCell>
        <mxCell id="ibFiL1Bw5MCaEzBGAbg2-5" value="IMA" style="text;html=1;strokeColor=none;fillColor=none;align=center;verticalAlign=middle;whiteSpace=wrap;rounded=0;shadow=0;sketch=0;fontSize=20;fontColor=#FFFFFF;fontStyle=1" parent="ibFiL1Bw5MCaEzBGAbg2-1" vertex="1">
          <mxGeometry x="734" y="144" width="40" height="20" as="geometry" />
        </mxCell>
        <mxCell id="ibFiL1Bw5MCaEzBGAbg2-6" value="" style="html=1;verticalLabelPosition=bottom;align=center;labelBackgroundColor=#ffffff;verticalAlign=top;strokeWidth=2;shadow=0;dashed=0;shape=mxgraph.ios7.icons.user;sketch=0;fontSize=20;fontColor=#FFFFFF;fillColor=#FFFFFF;" parent="ibFiL1Bw5MCaEzBGAbg2-1" vertex="1">
          <mxGeometry x="1488" y="140.5" width="30" height="30" as="geometry" />
        </mxCell>
        <mxCell id="ibFiL1Bw5MCaEzBGAbg2-7" value="John Doe" style="text;html=1;strokeColor=none;fillColor=none;align=center;verticalAlign=middle;whiteSpace=wrap;rounded=0;shadow=0;sketch=0;fontSize=19;fontColor=#FFFFFF;" parent="ibFiL1Bw5MCaEzBGAbg2-1" vertex="1">
          <mxGeometry x="1531.5" y="145.5" width="94" height="20" as="geometry" />
        </mxCell>
        <mxCell id="ibFiL1Bw5MCaEzBGAbg2-8" value="&amp;lt;Classification Here&amp;gt;" style="rounded=0;whiteSpace=wrap;html=1;shadow=0;sketch=0;fontSize=12;align=center;fillColor=#FFFF33;strokeColor=none;" parent="ibFiL1Bw5MCaEzBGAbg2-1" vertex="1">
          <mxGeometry x="658" y="104" width="1182" height="20" as="geometry" />
        </mxCell>
        <mxCell id="ibFiL1Bw5MCaEzBGAbg2-9" value="" style="shape=rect;strokeColor=#eeeeee;shadow=1;align=left;fillColor=#FFFFFF;fontStyle=1" parent="ibFiL1Bw5MCaEzBGAbg2-1" vertex="1">
          <mxGeometry x="660" y="230" width="589" height="372" as="geometry" />
        </mxCell>
        <mxCell id="ibFiL1Bw5MCaEzBGAbg2-10" value="" style="shape=rect;strokeColor=#eeeeee;fillColor=#ffffff;resizeWidth=1;" parent="ibFiL1Bw5MCaEzBGAbg2-9" vertex="1">
          <mxGeometry width="589" height="64" relative="1" as="geometry" />
        </mxCell>
        <mxCell id="ibFiL1Bw5MCaEzBGAbg2-11" value="Actions - Assigned (18)" style="text;fontSize=18;fontColor=#0288D1;fontStyle=1" parent="ibFiL1Bw5MCaEzBGAbg2-10" vertex="1">
          <mxGeometry width="235" height="20" relative="1" as="geometry">
            <mxPoint x="66" y="18" as="offset" />
          </mxGeometry>
        </mxCell>
        <mxCell id="ibFiL1Bw5MCaEzBGAbg2-12" value="" style="shape=image;html=1;verticalAlign=top;verticalLabelPosition=bottom;labelBackgroundColor=#ffffff;imageAspect=0;aspect=fixed;image=https://cdn0.iconfinder.com/data/icons/google-material-design-3-0/48/ic_assignment_ind_48px-128.png;fillColor=#0288D1;fontColor=#FFFFFF;" parent="ibFiL1Bw5MCaEzBGAbg2-10" vertex="1">
          <mxGeometry x="9" y="12" width="42" height="42" as="geometry" />
        </mxCell>
        <mxCell id="ibFiL1Bw5MCaEzBGAbg2-13" value="" style="shape=rect;strokeColor=#eeeeee;fillColor=#ffffff;;whiteSpace=wrap;align=left;spacingLeft=16;fontColor=#666666;verticalAlign=top;spacingTop=10;fontSize=13;spacingRight=16;" parent="ibFiL1Bw5MCaEzBGAbg2-9" vertex="1">
          <mxGeometry y="246.03174603174602" width="589" height="125.96825396825396" as="geometry" />
        </mxCell>
        <mxCell id="ibFiL1Bw5MCaEzBGAbg2-14" value="" style="shape=rect;strokeColor=#eeeeee;fillColor=#ffffff;;whiteSpace=wrap;align=left;spacingLeft=14;fontColor=#BDBDBD;resizeWidth=1;" parent="ibFiL1Bw5MCaEzBGAbg2-9" vertex="1">
          <mxGeometry y="1" width="589" height="48" relative="1" as="geometry">
            <mxPoint y="-48" as="offset" />
          </mxGeometry>
        </mxCell>
        <mxCell id="ibFiL1Bw5MCaEzBGAbg2-15" value="OPEN" style="shape=rect;strokeColor=none;fillColor=#0288D1;fontColor=#FFFFFF;fontStyle=1;fontSize=13;" parent="ibFiL1Bw5MCaEzBGAbg2-14" vertex="1">
          <mxGeometry x="1" y="1" width="70" height="36" relative="1" as="geometry">
            <mxPoint x="-75" y="-42" as="offset" />
          </mxGeometry>
        </mxCell>
        <mxCell id="ibFiL1Bw5MCaEzBGAbg2-16" value="" style="shape=table;html=1;whiteSpace=wrap;startSize=0;container=1;collapsible=0;childLayout=tableLayout;shadow=0;strokeColor=none;fontColor=#0288D1;" parent="ibFiL1Bw5MCaEzBGAbg2-9" vertex="1">
          <mxGeometry x="12" y="81.68253968253968" width="562.1666666666665" height="157.46031746031744" as="geometry" />
        </mxCell>
        <mxCell id="ibFiL1Bw5MCaEzBGAbg2-17" value="" style="shape=partialRectangle;html=1;whiteSpace=wrap;collapsible=0;dropTarget=0;pointerEvents=0;fillColor=none;top=0;left=0;bottom=0;right=0;points=[[0,0.5],[1,0.5]];portConstraint=eastwest;" parent="ibFiL1Bw5MCaEzBGAbg2-16" vertex="1">
          <mxGeometry width="562.1666666666665" height="39" as="geometry" />
        </mxCell>
        <mxCell id="ibFiL1Bw5MCaEzBGAbg2-18" value="Status" style="shape=partialRectangle;html=1;whiteSpace=wrap;connectable=0;overflow=hidden;top=0;left=0;bottom=0;right=0;strokeColor=#666666;align=left;fontStyle=1;fontSize=14;fillColor=#0288D1;fontColor=#FFFFFF;" parent="ibFiL1Bw5MCaEzBGAbg2-17" vertex="1">
          <mxGeometry width="97" height="39" as="geometry" />
        </mxCell>
        <mxCell id="ibFiL1Bw5MCaEzBGAbg2-19" value="System" style="shape=partialRectangle;html=1;whiteSpace=wrap;connectable=0;overflow=hidden;top=0;left=0;bottom=0;right=0;strokeColor=#666666;align=left;fontStyle=1;fontSize=14;fillColor=#0288D1;fontColor=#FFFFFF;" parent="ibFiL1Bw5MCaEzBGAbg2-17" vertex="1">
          <mxGeometry x="97" width="165" height="39" as="geometry" />
        </mxCell>
        <mxCell id="ibFiL1Bw5MCaEzBGAbg2-20" value="Since" style="shape=partialRectangle;html=1;whiteSpace=wrap;connectable=0;overflow=hidden;top=0;left=0;bottom=0;right=0;strokeColor=#666666;fontStyle=1;fontSize=14;fillColor=#0288D1;fontColor=#FFFFFF;" parent="ibFiL1Bw5MCaEzBGAbg2-17" vertex="1">
          <mxGeometry x="262" width="300" height="39" as="geometry" />
        </mxCell>
        <mxCell id="ibFiL1Bw5MCaEzBGAbg2-21" value="" style="shape=partialRectangle;html=1;whiteSpace=wrap;collapsible=0;dropTarget=0;pointerEvents=0;fillColor=none;top=0;left=0;bottom=0;right=0;points=[[0,0.5],[1,0.5]];portConstraint=eastwest;fontColor=#B3B3B3;" parent="ibFiL1Bw5MCaEzBGAbg2-16" vertex="1">
          <mxGeometry y="39" width="562.1666666666665" height="40" as="geometry" />
        </mxCell>
        <mxCell id="ibFiL1Bw5MCaEzBGAbg2-22" style="shape=partialRectangle;html=1;whiteSpace=wrap;connectable=0;overflow=hidden;fillColor=none;top=0;left=0;bottom=0;right=0;align=left;fontColor=#B3B3B3;" parent="ibFiL1Bw5MCaEzBGAbg2-21" vertex="1">
          <mxGeometry width="97" height="40" as="geometry" />
        </mxCell>
        <mxCell id="ibFiL1Bw5MCaEzBGAbg2-23" value="Facebook System" style="shape=partialRectangle;html=1;whiteSpace=wrap;connectable=0;overflow=hidden;fillColor=none;top=0;left=0;bottom=0;right=0;align=left;fontColor=#B3B3B3;" parent="ibFiL1Bw5MCaEzBGAbg2-21" vertex="1">
          <mxGeometry x="97" width="165" height="40" as="geometry" />
        </mxCell>
        <mxCell id="ibFiL1Bw5MCaEzBGAbg2-24" value="February 11, 2021" style="shape=partialRectangle;html=1;whiteSpace=wrap;connectable=0;overflow=hidden;fillColor=none;top=0;left=0;bottom=0;right=0;fontColor=#B3B3B3;" parent="ibFiL1Bw5MCaEzBGAbg2-21" vertex="1">
          <mxGeometry x="262" width="300" height="40" as="geometry" />
        </mxCell>
        <mxCell id="ibFiL1Bw5MCaEzBGAbg2-25" value="" style="shape=partialRectangle;html=1;whiteSpace=wrap;collapsible=0;dropTarget=0;pointerEvents=0;fillColor=none;top=0;left=0;bottom=0;right=0;points=[[0,0.5],[1,0.5]];portConstraint=eastwest;fontColor=#B3B3B3;" parent="ibFiL1Bw5MCaEzBGAbg2-16" vertex="1">
          <mxGeometry y="79" width="562.1666666666665" height="39" as="geometry" />
        </mxCell>
        <mxCell id="ibFiL1Bw5MCaEzBGAbg2-26" style="shape=partialRectangle;html=1;whiteSpace=wrap;connectable=0;overflow=hidden;fillColor=none;top=0;left=0;bottom=0;right=0;align=left;fontColor=#B3B3B3;" parent="ibFiL1Bw5MCaEzBGAbg2-25" vertex="1">
          <mxGeometry width="97" height="39" as="geometry" />
        </mxCell>
        <mxCell id="ibFiL1Bw5MCaEzBGAbg2-27" value="YouTube System" style="shape=partialRectangle;html=1;whiteSpace=wrap;connectable=0;overflow=hidden;fillColor=none;top=0;left=0;bottom=0;right=0;align=left;fontColor=#B3B3B3;" parent="ibFiL1Bw5MCaEzBGAbg2-25" vertex="1">
          <mxGeometry x="97" width="165" height="39" as="geometry" />
        </mxCell>
        <mxCell id="ibFiL1Bw5MCaEzBGAbg2-28" value="February 11, 2021" style="shape=partialRectangle;html=1;whiteSpace=wrap;connectable=0;overflow=hidden;fillColor=none;top=0;left=0;bottom=0;right=0;fontColor=#B3B3B3;" parent="ibFiL1Bw5MCaEzBGAbg2-25" vertex="1">
          <mxGeometry x="262" width="300" height="39" as="geometry" />
        </mxCell>
        <mxCell id="ibFiL1Bw5MCaEzBGAbg2-29" value="" style="shape=partialRectangle;html=1;whiteSpace=wrap;collapsible=0;dropTarget=0;pointerEvents=0;fillColor=none;top=0;left=0;bottom=0;right=0;points=[[0,0.5],[1,0.5]];portConstraint=eastwest;fontColor=#B3B3B3;" parent="ibFiL1Bw5MCaEzBGAbg2-16" vertex="1">
          <mxGeometry y="118" width="562.1666666666665" height="39" as="geometry" />
        </mxCell>
        <mxCell id="ibFiL1Bw5MCaEzBGAbg2-30" style="shape=partialRectangle;html=1;whiteSpace=wrap;connectable=0;overflow=hidden;fillColor=none;top=0;left=0;bottom=0;right=0;align=left;fontColor=#B3B3B3;" parent="ibFiL1Bw5MCaEzBGAbg2-29" vertex="1">
          <mxGeometry width="97" height="39" as="geometry" />
        </mxCell>
        <mxCell id="ibFiL1Bw5MCaEzBGAbg2-31" value="Twitter System" style="shape=partialRectangle;html=1;whiteSpace=wrap;connectable=0;overflow=hidden;fillColor=none;top=0;left=0;bottom=0;right=0;align=left;fontColor=#B3B3B3;" parent="ibFiL1Bw5MCaEzBGAbg2-29" vertex="1">
          <mxGeometry x="97" width="165" height="39" as="geometry" />
        </mxCell>
        <mxCell id="ibFiL1Bw5MCaEzBGAbg2-32" value="February 11, 2021" style="shape=partialRectangle;html=1;whiteSpace=wrap;connectable=0;overflow=hidden;fillColor=none;top=0;left=0;bottom=0;right=0;fontColor=#B3B3B3;" parent="ibFiL1Bw5MCaEzBGAbg2-29" vertex="1">
          <mxGeometry x="262" width="300" height="39" as="geometry" />
        </mxCell>
        <mxCell id="ibFiL1Bw5MCaEzBGAbg2-33" value="" style="shape=rect;strokeColor=#eeeeee;shadow=1;fillColor=#FFFFFF;align=left;" parent="ibFiL1Bw5MCaEzBGAbg2-1" vertex="1">
          <mxGeometry x="1268" y="228" width="575" height="372" as="geometry" />
        </mxCell>
        <mxCell id="ibFiL1Bw5MCaEzBGAbg2-34" value="" style="shape=rect;strokeColor=#eeeeee;fillColor=#ffffff;resizeWidth=1;" parent="ibFiL1Bw5MCaEzBGAbg2-33" vertex="1">
          <mxGeometry width="559" height="70" relative="1" as="geometry" />
        </mxCell>
        <mxCell id="ibFiL1Bw5MCaEzBGAbg2-35" value="" style="shape=image;html=1;verticalAlign=top;verticalLabelPosition=bottom;labelBackgroundColor=#ffffff;imageAspect=0;aspect=fixed;image=https://cdn3.iconfinder.com/data/icons/solid-locations-icon-set/64/Working_Tools_2-128.png;fontFamily=Helvetica;fontSize=12;fontColor=#000000;align=center;fillColor=#999999;" parent="ibFiL1Bw5MCaEzBGAbg2-34" vertex="1">
          <mxGeometry width="40" height="40" relative="1" as="geometry">
            <mxPoint x="15" y="15" as="offset" />
          </mxGeometry>
        </mxCell>
        <mxCell id="ibFiL1Bw5MCaEzBGAbg2-36" value="Actions- In Progress (8)" style="text;fontSize=18;fontColor=#0288D1;fontStyle=1" parent="ibFiL1Bw5MCaEzBGAbg2-34" vertex="1">
          <mxGeometry width="235" height="20" relative="1" as="geometry">
            <mxPoint x="65" y="22" as="offset" />
          </mxGeometry>
        </mxCell>
        <mxCell id="ibFiL1Bw5MCaEzBGAbg2-37" value="" style="shape=rect;strokeColor=#eeeeee;fillColor=#ffffff;;whiteSpace=wrap;align=left;spacingLeft=16;fontColor=#666666;verticalAlign=top;spacingTop=10;fontSize=13;spacingRight=16;" parent="ibFiL1Bw5MCaEzBGAbg2-33" vertex="1">
          <mxGeometry y="246.03174603174602" width="559" height="125.96825396825396" as="geometry" />
        </mxCell>
        <mxCell id="ibFiL1Bw5MCaEzBGAbg2-38" value="" style="shape=rect;strokeColor=#eeeeee;fillColor=#ffffff;;whiteSpace=wrap;align=left;spacingLeft=14;fontColor=#BDBDBD;resizeWidth=1;" parent="ibFiL1Bw5MCaEzBGAbg2-33" vertex="1">
          <mxGeometry y="1" width="559" height="48" relative="1" as="geometry">
            <mxPoint y="-48" as="offset" />
          </mxGeometry>
        </mxCell>
        <mxCell id="ibFiL1Bw5MCaEzBGAbg2-39" value="OPEN" style="shape=rect;strokeColor=none;fillColor=#0288D1;fontColor=#FFFFFF;fontStyle=1;fontSize=13;" parent="ibFiL1Bw5MCaEzBGAbg2-38" vertex="1">
          <mxGeometry x="1" y="1" width="70" height="36" relative="1" as="geometry">
            <mxPoint x="-75" y="-42" as="offset" />
          </mxGeometry>
        </mxCell>
        <mxCell id="ibFiL1Bw5MCaEzBGAbg2-40" value="" style="shape=table;html=1;whiteSpace=wrap;startSize=0;container=1;collapsible=0;childLayout=tableLayout;shadow=0;strokeColor=none;fontColor=#0288D1;" parent="ibFiL1Bw5MCaEzBGAbg2-33" vertex="1">
          <mxGeometry x="15" y="84.28125" width="548.5" height="155" as="geometry" />
        </mxCell>
        <mxCell id="ibFiL1Bw5MCaEzBGAbg2-41" value="" style="shape=partialRectangle;html=1;whiteSpace=wrap;collapsible=0;dropTarget=0;pointerEvents=0;fillColor=none;top=0;left=0;bottom=0;right=0;points=[[0,0.5],[1,0.5]];portConstraint=eastwest;" parent="ibFiL1Bw5MCaEzBGAbg2-40" vertex="1">
          <mxGeometry width="548.5" height="39" as="geometry" />
        </mxCell>
        <mxCell id="ibFiL1Bw5MCaEzBGAbg2-42" value="Status" style="shape=partialRectangle;html=1;whiteSpace=wrap;connectable=0;overflow=hidden;top=0;left=0;bottom=0;right=0;strokeColor=#666666;align=left;fontStyle=1;fontSize=14;fillColor=#0288D1;fontColor=#FFFFFF;" parent="ibFiL1Bw5MCaEzBGAbg2-41" vertex="1">
          <mxGeometry width="93" height="39" as="geometry" />
        </mxCell>
        <mxCell id="ibFiL1Bw5MCaEzBGAbg2-43" value="System" style="shape=partialRectangle;html=1;whiteSpace=wrap;connectable=0;overflow=hidden;top=0;left=0;bottom=0;right=0;strokeColor=#666666;align=left;fontStyle=1;fontSize=14;fillColor=#0288D1;fontColor=#FFFFFF;" parent="ibFiL1Bw5MCaEzBGAbg2-41" vertex="1">
          <mxGeometry x="93" width="156" height="39" as="geometry" />
        </mxCell>
        <mxCell id="ibFiL1Bw5MCaEzBGAbg2-44" value="Step" style="shape=partialRectangle;html=1;whiteSpace=wrap;connectable=0;overflow=hidden;top=0;left=0;bottom=0;right=0;strokeColor=#666666;fontStyle=1;fontSize=14;fillColor=#0288D1;fontColor=#FFFFFF;" parent="ibFiL1Bw5MCaEzBGAbg2-41" vertex="1">
          <mxGeometry x="249" width="161" height="39" as="geometry" />
        </mxCell>
        <mxCell id="ibFiL1Bw5MCaEzBGAbg2-45" value="Since" style="shape=partialRectangle;html=1;whiteSpace=wrap;connectable=0;overflow=hidden;top=0;left=0;bottom=0;right=0;strokeColor=#666666;fontStyle=1;fontSize=14;fillColor=#0288D1;fontColor=#FFFFFF;" parent="ibFiL1Bw5MCaEzBGAbg2-41" vertex="1">
          <mxGeometry x="410" width="139" height="39" as="geometry" />
        </mxCell>
        <mxCell id="ibFiL1Bw5MCaEzBGAbg2-46" value="" style="shape=partialRectangle;html=1;whiteSpace=wrap;collapsible=0;dropTarget=0;pointerEvents=0;fillColor=none;top=0;left=0;bottom=0;right=0;points=[[0,0.5],[1,0.5]];portConstraint=eastwest;fontColor=#B3B3B3;" parent="ibFiL1Bw5MCaEzBGAbg2-40" vertex="1">
          <mxGeometry y="39" width="548.5" height="39" as="geometry" />
        </mxCell>
        <mxCell id="ibFiL1Bw5MCaEzBGAbg2-47" style="shape=partialRectangle;html=1;whiteSpace=wrap;connectable=0;overflow=hidden;fillColor=none;top=0;left=0;bottom=0;right=0;align=left;fontColor=#B3B3B3;" parent="ibFiL1Bw5MCaEzBGAbg2-46" vertex="1">
          <mxGeometry width="93" height="39" as="geometry" />
        </mxCell>
        <mxCell id="ibFiL1Bw5MCaEzBGAbg2-48" value="Peony System" style="shape=partialRectangle;html=1;whiteSpace=wrap;connectable=0;overflow=hidden;fillColor=none;top=0;left=0;bottom=0;right=0;align=left;fontColor=#B3B3B3;" parent="ibFiL1Bw5MCaEzBGAbg2-46" vertex="1">
          <mxGeometry x="93" width="156" height="39" as="geometry" />
        </mxCell>
        <mxCell id="ibFiL1Bw5MCaEzBGAbg2-49" value="Step 3" style="shape=partialRectangle;html=1;whiteSpace=wrap;connectable=0;overflow=hidden;fillColor=none;top=0;left=0;bottom=0;right=0;fontColor=#B3B3B3;" parent="ibFiL1Bw5MCaEzBGAbg2-46" vertex="1">
          <mxGeometry x="249" width="161" height="39" as="geometry" />
        </mxCell>
        <mxCell id="ibFiL1Bw5MCaEzBGAbg2-50" value="February 8, 2021" style="shape=partialRectangle;html=1;whiteSpace=wrap;connectable=0;overflow=hidden;fillColor=none;top=0;left=0;bottom=0;right=0;fontColor=#B3B3B3;" parent="ibFiL1Bw5MCaEzBGAbg2-46" vertex="1">
          <mxGeometry x="410" width="139" height="39" as="geometry" />
        </mxCell>
        <mxCell id="ibFiL1Bw5MCaEzBGAbg2-51" value="" style="shape=partialRectangle;html=1;whiteSpace=wrap;collapsible=0;dropTarget=0;pointerEvents=0;fillColor=none;top=0;left=0;bottom=0;right=0;points=[[0,0.5],[1,0.5]];portConstraint=eastwest;fontColor=#B3B3B3;" parent="ibFiL1Bw5MCaEzBGAbg2-40" vertex="1">
          <mxGeometry y="78" width="548.5" height="39" as="geometry" />
        </mxCell>
        <mxCell id="ibFiL1Bw5MCaEzBGAbg2-52" style="shape=partialRectangle;html=1;whiteSpace=wrap;connectable=0;overflow=hidden;fillColor=none;top=0;left=0;bottom=0;right=0;align=left;fontColor=#B3B3B3;" parent="ibFiL1Bw5MCaEzBGAbg2-51" vertex="1">
          <mxGeometry width="93" height="39" as="geometry" />
        </mxCell>
        <mxCell id="ibFiL1Bw5MCaEzBGAbg2-53" value="Tulips System" style="shape=partialRectangle;html=1;whiteSpace=wrap;connectable=0;overflow=hidden;fillColor=none;top=0;left=0;bottom=0;right=0;align=left;fontColor=#B3B3B3;" parent="ibFiL1Bw5MCaEzBGAbg2-51" vertex="1">
          <mxGeometry x="93" width="156" height="39" as="geometry" />
        </mxCell>
        <mxCell id="ibFiL1Bw5MCaEzBGAbg2-54" value="Step 3" style="shape=partialRectangle;html=1;whiteSpace=wrap;connectable=0;overflow=hidden;fillColor=none;top=0;left=0;bottom=0;right=0;fontColor=#B3B3B3;" parent="ibFiL1Bw5MCaEzBGAbg2-51" vertex="1">
          <mxGeometry x="249" width="161" height="39" as="geometry" />
        </mxCell>
        <mxCell id="ibFiL1Bw5MCaEzBGAbg2-55" value="February 9, 2021" style="shape=partialRectangle;html=1;whiteSpace=wrap;connectable=0;overflow=hidden;fillColor=none;top=0;left=0;bottom=0;right=0;fontColor=#B3B3B3;" parent="ibFiL1Bw5MCaEzBGAbg2-51" vertex="1">
          <mxGeometry x="410" width="139" height="39" as="geometry" />
        </mxCell>
        <mxCell id="ibFiL1Bw5MCaEzBGAbg2-56" value="" style="shape=partialRectangle;html=1;whiteSpace=wrap;collapsible=0;dropTarget=0;pointerEvents=0;fillColor=none;top=0;left=0;bottom=0;right=0;points=[[0,0.5],[1,0.5]];portConstraint=eastwest;fontColor=#B3B3B3;" parent="ibFiL1Bw5MCaEzBGAbg2-40" vertex="1">
          <mxGeometry y="117" width="548.5" height="38" as="geometry" />
        </mxCell>
        <mxCell id="ibFiL1Bw5MCaEzBGAbg2-57" style="shape=partialRectangle;html=1;whiteSpace=wrap;connectable=0;overflow=hidden;fillColor=none;top=0;left=0;bottom=0;right=0;align=left;fontColor=#B3B3B3;" parent="ibFiL1Bw5MCaEzBGAbg2-56" vertex="1">
          <mxGeometry width="93" height="38" as="geometry" />
        </mxCell>
        <mxCell id="ibFiL1Bw5MCaEzBGAbg2-58" value="Roses System" style="shape=partialRectangle;html=1;whiteSpace=wrap;connectable=0;overflow=hidden;fillColor=none;top=0;left=0;bottom=0;right=0;align=left;fontColor=#B3B3B3;" parent="ibFiL1Bw5MCaEzBGAbg2-56" vertex="1">
          <mxGeometry x="93" width="156" height="38" as="geometry" />
        </mxCell>
        <mxCell id="ibFiL1Bw5MCaEzBGAbg2-59" value="Step 1" style="shape=partialRectangle;html=1;whiteSpace=wrap;connectable=0;overflow=hidden;fillColor=none;top=0;left=0;bottom=0;right=0;fontColor=#B3B3B3;" parent="ibFiL1Bw5MCaEzBGAbg2-56" vertex="1">
          <mxGeometry x="249" width="161" height="38" as="geometry" />
        </mxCell>
        <mxCell id="ibFiL1Bw5MCaEzBGAbg2-60" value="February 11, 2021" style="shape=partialRectangle;html=1;whiteSpace=wrap;connectable=0;overflow=hidden;fillColor=none;top=0;left=0;bottom=0;right=0;fontColor=#B3B3B3;" parent="ibFiL1Bw5MCaEzBGAbg2-56" vertex="1">
          <mxGeometry x="410" width="139" height="38" as="geometry" />
        </mxCell>
        <mxCell id="ibFiL1Bw5MCaEzBGAbg2-61" value="" style="shape=rect;strokeColor=#eeeeee;shadow=1;fillColor=#FFFFFF;" parent="ibFiL1Bw5MCaEzBGAbg2-1" vertex="1">
          <mxGeometry x="654" y="639" width="592" height="410" as="geometry" />
        </mxCell>
        <mxCell id="ibFiL1Bw5MCaEzBGAbg2-62" value="" style="shape=rect;strokeColor=#eeeeee;fillColor=#ffffff;resizeWidth=1;" parent="ibFiL1Bw5MCaEzBGAbg2-61" vertex="1">
          <mxGeometry width="592" height="70" relative="1" as="geometry" />
        </mxCell>
        <mxCell id="ibFiL1Bw5MCaEzBGAbg2-63" value="" style="shape=image;html=1;verticalAlign=top;verticalLabelPosition=bottom;labelBackgroundColor=#ffffff;imageAspect=0;aspect=fixed;image=https://cdn4.iconfinder.com/data/icons/top-search-7/128/_people_users_people_team_leader_group_community-16-128.png;fontFamily=Helvetica;fontSize=12;fontColor=#000000;align=center;fillColor=#999999;" parent="ibFiL1Bw5MCaEzBGAbg2-62" vertex="1">
          <mxGeometry width="40" height="40" relative="1" as="geometry">
            <mxPoint x="15" y="15" as="offset" />
          </mxGeometry>
        </mxCell>
        <mxCell id="ibFiL1Bw5MCaEzBGAbg2-64" value="Actions - With IT Team" style="text;fontSize=18;fontColor=#0288D1;fontStyle=1" parent="ibFiL1Bw5MCaEzBGAbg2-62" vertex="1">
          <mxGeometry width="235" height="20" relative="1" as="geometry">
            <mxPoint x="65" y="21" as="offset" />
          </mxGeometry>
        </mxCell>
        <mxCell id="ibFiL1Bw5MCaEzBGAbg2-65" value="" style="shape=rect;strokeColor=#eeeeee;fillColor=#ffffff;;whiteSpace=wrap;align=left;spacingLeft=16;fontColor=#666666;verticalAlign=top;spacingTop=10;fontSize=13;spacingRight=16;" parent="ibFiL1Bw5MCaEzBGAbg2-61" vertex="1">
          <mxGeometry y="271.16402116402116" width="592" height="138.83597883597884" as="geometry" />
        </mxCell>
        <mxCell id="ibFiL1Bw5MCaEzBGAbg2-66" value="" style="shape=rect;strokeColor=#eeeeee;fillColor=#ffffff;;whiteSpace=wrap;align=left;spacingLeft=14;fontColor=#BDBDBD;resizeWidth=1;" parent="ibFiL1Bw5MCaEzBGAbg2-61" vertex="1">
          <mxGeometry y="1" width="592" height="48" relative="1" as="geometry">
            <mxPoint y="-48" as="offset" />
          </mxGeometry>
        </mxCell>
        <mxCell id="ibFiL1Bw5MCaEzBGAbg2-67" value="OPEN" style="shape=rect;strokeColor=none;fontStyle=1;fontSize=13;fillColor=#0288D1;fontColor=#FFFFFF;" parent="ibFiL1Bw5MCaEzBGAbg2-66" vertex="1">
          <mxGeometry x="1" y="1" width="70" height="36" relative="1" as="geometry">
            <mxPoint x="-75" y="-42" as="offset" />
          </mxGeometry>
        </mxCell>
        <mxCell id="ibFiL1Bw5MCaEzBGAbg2-68" value="" style="shape=table;html=1;whiteSpace=wrap;startSize=0;container=1;collapsible=0;childLayout=tableLayout;shadow=0;strokeColor=none;fontColor=#0288D1;" parent="ibFiL1Bw5MCaEzBGAbg2-61" vertex="1">
          <mxGeometry x="14" y="87" width="561" height="160" as="geometry" />
        </mxCell>
        <mxCell id="ibFiL1Bw5MCaEzBGAbg2-69" value="" style="shape=partialRectangle;html=1;whiteSpace=wrap;collapsible=0;dropTarget=0;pointerEvents=0;fillColor=none;top=0;left=0;bottom=0;right=0;points=[[0,0.5],[1,0.5]];portConstraint=eastwest;" parent="ibFiL1Bw5MCaEzBGAbg2-68" vertex="1">
          <mxGeometry width="561" height="40" as="geometry" />
        </mxCell>
        <mxCell id="ibFiL1Bw5MCaEzBGAbg2-70" value="Status" style="shape=partialRectangle;html=1;whiteSpace=wrap;connectable=0;overflow=hidden;top=0;left=0;bottom=0;right=0;strokeColor=#666666;align=left;fontStyle=1;fontSize=14;fillColor=#0288D1;fontColor=#FFFFFF;" parent="ibFiL1Bw5MCaEzBGAbg2-69" vertex="1">
          <mxGeometry width="71" height="40" as="geometry" />
        </mxCell>
        <mxCell id="ibFiL1Bw5MCaEzBGAbg2-71" value="System" style="shape=partialRectangle;html=1;whiteSpace=wrap;connectable=0;overflow=hidden;top=0;left=0;bottom=0;right=0;strokeColor=#666666;align=left;fontStyle=1;fontSize=14;fillColor=#0288D1;fontColor=#FFFFFF;" parent="ibFiL1Bw5MCaEzBGAbg2-69" vertex="1">
          <mxGeometry x="71" width="118" height="40" as="geometry" />
        </mxCell>
        <mxCell id="ibFiL1Bw5MCaEzBGAbg2-72" value="Step" style="shape=partialRectangle;html=1;whiteSpace=wrap;connectable=0;overflow=hidden;top=0;left=0;bottom=0;right=0;strokeColor=#666666;fontStyle=1;fontSize=14;fillColor=#0288D1;fontColor=#FFFFFF;" parent="ibFiL1Bw5MCaEzBGAbg2-69" vertex="1">
          <mxGeometry x="189" width="124" height="40" as="geometry" />
        </mxCell>
        <mxCell id="ibFiL1Bw5MCaEzBGAbg2-73" value="Since" style="shape=partialRectangle;html=1;whiteSpace=wrap;connectable=0;overflow=hidden;top=0;left=0;bottom=0;right=0;strokeColor=#666666;fontStyle=1;fontSize=14;fillColor=#0288D1;fontColor=#FFFFFF;" parent="ibFiL1Bw5MCaEzBGAbg2-69" vertex="1">
          <mxGeometry x="313" width="248" height="40" as="geometry" />
        </mxCell>
        <mxCell id="ibFiL1Bw5MCaEzBGAbg2-74" value="" style="shape=partialRectangle;html=1;whiteSpace=wrap;collapsible=0;dropTarget=0;pointerEvents=0;fillColor=none;top=0;left=0;bottom=0;right=0;points=[[0,0.5],[1,0.5]];portConstraint=eastwest;fontColor=#B3B3B3;" parent="ibFiL1Bw5MCaEzBGAbg2-68" vertex="1">
          <mxGeometry y="40" width="561" height="40" as="geometry" />
        </mxCell>
        <mxCell id="ibFiL1Bw5MCaEzBGAbg2-75" style="shape=partialRectangle;html=1;whiteSpace=wrap;connectable=0;overflow=hidden;fillColor=none;top=0;left=0;bottom=0;right=0;align=left;fontColor=#B3B3B3;" parent="ibFiL1Bw5MCaEzBGAbg2-74" vertex="1">
          <mxGeometry width="71" height="40" as="geometry" />
        </mxCell>
        <mxCell id="ibFiL1Bw5MCaEzBGAbg2-76" value="Key West System" style="shape=partialRectangle;html=1;whiteSpace=wrap;connectable=0;overflow=hidden;fillColor=none;top=0;left=0;bottom=0;right=0;align=left;fontColor=#B3B3B3;" parent="ibFiL1Bw5MCaEzBGAbg2-74" vertex="1">
          <mxGeometry x="71" width="118" height="40" as="geometry" />
        </mxCell>
        <mxCell id="ibFiL1Bw5MCaEzBGAbg2-77" value="Step 3" style="shape=partialRectangle;html=1;whiteSpace=wrap;connectable=0;overflow=hidden;fillColor=none;top=0;left=0;bottom=0;right=0;fontColor=#B3B3B3;" parent="ibFiL1Bw5MCaEzBGAbg2-74" vertex="1">
          <mxGeometry x="189" width="124" height="40" as="geometry" />
        </mxCell>
        <mxCell id="ibFiL1Bw5MCaEzBGAbg2-78" value="January 16, 2021" style="shape=partialRectangle;html=1;whiteSpace=wrap;connectable=0;overflow=hidden;fillColor=none;top=0;left=0;bottom=0;right=0;fontColor=#B3B3B3;" parent="ibFiL1Bw5MCaEzBGAbg2-74" vertex="1">
          <mxGeometry x="313" width="248" height="40" as="geometry" />
        </mxCell>
        <mxCell id="ibFiL1Bw5MCaEzBGAbg2-79" value="" style="shape=partialRectangle;html=1;whiteSpace=wrap;collapsible=0;dropTarget=0;pointerEvents=0;fillColor=none;top=0;left=0;bottom=0;right=0;points=[[0,0.5],[1,0.5]];portConstraint=eastwest;fontColor=#B3B3B3;" parent="ibFiL1Bw5MCaEzBGAbg2-68" vertex="1">
          <mxGeometry y="80" width="561" height="40" as="geometry" />
        </mxCell>
        <mxCell id="ibFiL1Bw5MCaEzBGAbg2-80" style="shape=partialRectangle;html=1;whiteSpace=wrap;connectable=0;overflow=hidden;fillColor=none;top=0;left=0;bottom=0;right=0;align=left;fontColor=#B3B3B3;" parent="ibFiL1Bw5MCaEzBGAbg2-79" vertex="1">
          <mxGeometry width="71" height="40" as="geometry" />
        </mxCell>
        <mxCell id="ibFiL1Bw5MCaEzBGAbg2-81" value="Jamaica System" style="shape=partialRectangle;html=1;whiteSpace=wrap;connectable=0;overflow=hidden;fillColor=none;top=0;left=0;bottom=0;right=0;align=left;fontColor=#B3B3B3;" parent="ibFiL1Bw5MCaEzBGAbg2-79" vertex="1">
          <mxGeometry x="71" width="118" height="40" as="geometry" />
        </mxCell>
        <mxCell id="ibFiL1Bw5MCaEzBGAbg2-82" value="Step 3" style="shape=partialRectangle;html=1;whiteSpace=wrap;connectable=0;overflow=hidden;fillColor=none;top=0;left=0;bottom=0;right=0;fontColor=#B3B3B3;" parent="ibFiL1Bw5MCaEzBGAbg2-79" vertex="1">
          <mxGeometry x="189" width="124" height="40" as="geometry" />
        </mxCell>
        <mxCell id="ibFiL1Bw5MCaEzBGAbg2-83" value="February 2, 2021" style="shape=partialRectangle;html=1;whiteSpace=wrap;connectable=0;overflow=hidden;fillColor=none;top=0;left=0;bottom=0;right=0;fontColor=#B3B3B3;" parent="ibFiL1Bw5MCaEzBGAbg2-79" vertex="1">
          <mxGeometry x="313" width="248" height="40" as="geometry" />
        </mxCell>
        <mxCell id="ibFiL1Bw5MCaEzBGAbg2-84" value="" style="shape=partialRectangle;html=1;whiteSpace=wrap;collapsible=0;dropTarget=0;pointerEvents=0;fillColor=none;top=0;left=0;bottom=0;right=0;points=[[0,0.5],[1,0.5]];portConstraint=eastwest;fontColor=#B3B3B3;" parent="ibFiL1Bw5MCaEzBGAbg2-68" vertex="1">
          <mxGeometry y="120" width="561" height="40" as="geometry" />
        </mxCell>
        <mxCell id="ibFiL1Bw5MCaEzBGAbg2-85" style="shape=partialRectangle;html=1;whiteSpace=wrap;connectable=0;overflow=hidden;fillColor=none;top=0;left=0;bottom=0;right=0;align=left;fontColor=#B3B3B3;" parent="ibFiL1Bw5MCaEzBGAbg2-84" vertex="1">
          <mxGeometry width="71" height="40" as="geometry" />
        </mxCell>
        <mxCell id="ibFiL1Bw5MCaEzBGAbg2-86" value="Hawaii System" style="shape=partialRectangle;html=1;whiteSpace=wrap;connectable=0;overflow=hidden;fillColor=none;top=0;left=0;bottom=0;right=0;align=left;fontColor=#B3B3B3;" parent="ibFiL1Bw5MCaEzBGAbg2-84" vertex="1">
          <mxGeometry x="71" width="118" height="40" as="geometry" />
        </mxCell>
        <mxCell id="ibFiL1Bw5MCaEzBGAbg2-87" value="Step 3" style="shape=partialRectangle;html=1;whiteSpace=wrap;connectable=0;overflow=hidden;fillColor=none;top=0;left=0;bottom=0;right=0;fontColor=#B3B3B3;" parent="ibFiL1Bw5MCaEzBGAbg2-84" vertex="1">
          <mxGeometry x="189" width="124" height="40" as="geometry" />
        </mxCell>
        <mxCell id="ibFiL1Bw5MCaEzBGAbg2-88" value="December 23, 2020" style="shape=partialRectangle;html=1;whiteSpace=wrap;connectable=0;overflow=hidden;fillColor=none;top=0;left=0;bottom=0;right=0;fontColor=#B3B3B3;" parent="ibFiL1Bw5MCaEzBGAbg2-84" vertex="1">
          <mxGeometry x="313" width="248" height="40" as="geometry" />
        </mxCell>
        <mxCell id="ibFiL1Bw5MCaEzBGAbg2-89" value="" style="shape=image;html=1;verticalAlign=top;verticalLabelPosition=bottom;labelBackgroundColor=#ffffff;imageAspect=0;aspect=fixed;image=https://cdn4.iconfinder.com/data/icons/the-weather-is-nice-today/64/weather_48-128.png" parent="ibFiL1Bw5MCaEzBGAbg2-61" vertex="1">
          <mxGeometry x="28" y="172" width="30" height="30" as="geometry" />
        </mxCell>
        <mxCell id="ibFiL1Bw5MCaEzBGAbg2-90" value="DMO View" style="text;html=1;resizable=0;autosize=1;align=center;verticalAlign=middle;points=[];fillColor=none;strokeColor=none;rounded=0;fontSize=18;fontStyle=1" parent="ibFiL1Bw5MCaEzBGAbg2-1" vertex="1">
          <mxGeometry x="633" y="40" width="98" height="26" as="geometry" />
        </mxCell>
        <mxCell id="ibFiL1Bw5MCaEzBGAbg2-91" value="" style="shape=rect;strokeColor=#eeeeee;shadow=1;fillColor=#FFFFFF;" parent="ibFiL1Bw5MCaEzBGAbg2-1" vertex="1">
          <mxGeometry x="1271" y="639" width="581" height="410" as="geometry" />
        </mxCell>
        <mxCell id="ibFiL1Bw5MCaEzBGAbg2-92" value="" style="shape=rect;strokeColor=#eeeeee;fillColor=#ffffff;resizeWidth=1;" parent="ibFiL1Bw5MCaEzBGAbg2-91" vertex="1">
          <mxGeometry width="560.0360824742269" height="70" relative="1" as="geometry" />
        </mxCell>
        <mxCell id="ibFiL1Bw5MCaEzBGAbg2-93" value="" style="shape=image;html=1;verticalAlign=top;verticalLabelPosition=bottom;labelBackgroundColor=#ffffff;imageAspect=0;aspect=fixed;image=https://cdn2.iconfinder.com/data/icons/project-management-8/500/Approval-2-128.png;fontFamily=Helvetica;fontSize=12;fontColor=#000000;align=center;fillColor=#999999;" parent="ibFiL1Bw5MCaEzBGAbg2-92" vertex="1">
          <mxGeometry width="46" height="46" relative="1" as="geometry">
            <mxPoint x="15" y="15" as="offset" />
          </mxGeometry>
        </mxCell>
        <mxCell id="ibFiL1Bw5MCaEzBGAbg2-94" value="Actions- Pending Approval (6)" style="text;fontSize=18;fontColor=#0288D1;fontStyle=1" parent="ibFiL1Bw5MCaEzBGAbg2-92" vertex="1">
          <mxGeometry width="235" height="20" relative="1" as="geometry">
            <mxPoint x="65" y="22" as="offset" />
          </mxGeometry>
        </mxCell>
        <mxCell id="ibFiL1Bw5MCaEzBGAbg2-95" value="" style="shape=rect;strokeColor=#eeeeee;fillColor=#ffffff;;whiteSpace=wrap;align=left;spacingLeft=16;fontColor=#666666;verticalAlign=top;spacingTop=10;fontSize=13;spacingRight=16;" parent="ibFiL1Bw5MCaEzBGAbg2-91" vertex="1">
          <mxGeometry y="271.16402116402116" width="560.0360824742269" height="138.83597883597884" as="geometry" />
        </mxCell>
        <mxCell id="ibFiL1Bw5MCaEzBGAbg2-96" value="" style="shape=rect;strokeColor=#eeeeee;fillColor=#ffffff;;whiteSpace=wrap;align=left;spacingLeft=14;fontColor=#BDBDBD;resizeWidth=1;" parent="ibFiL1Bw5MCaEzBGAbg2-91" vertex="1">
          <mxGeometry y="1" width="560.0360824742269" height="48" relative="1" as="geometry">
            <mxPoint y="-48" as="offset" />
          </mxGeometry>
        </mxCell>
        <mxCell id="ibFiL1Bw5MCaEzBGAbg2-97" value="OPEN" style="shape=rect;strokeColor=none;fillColor=#0288D1;fontColor=#FFFFFF;fontSize=13;fontStyle=1;" parent="ibFiL1Bw5MCaEzBGAbg2-96" vertex="1">
          <mxGeometry x="1" y="1" width="70" height="36" relative="1" as="geometry">
            <mxPoint x="-75" y="-42" as="offset" />
          </mxGeometry>
        </mxCell>
        <mxCell id="ibFiL1Bw5MCaEzBGAbg2-98" value="" style="shape=table;html=1;whiteSpace=wrap;startSize=0;container=1;collapsible=0;childLayout=tableLayout;shadow=0;strokeColor=none;fontColor=#0288D1;" parent="ibFiL1Bw5MCaEzBGAbg2-91" vertex="1">
          <mxGeometry x="10.981099656357388" y="91.3317191283293" width="562.6427071401296" height="158.83777239709443" as="geometry" />
        </mxCell>
        <mxCell id="ibFiL1Bw5MCaEzBGAbg2-99" value="" style="shape=partialRectangle;html=1;whiteSpace=wrap;collapsible=0;dropTarget=0;pointerEvents=0;fillColor=none;top=0;left=0;bottom=0;right=0;points=[[0,0.5],[1,0.5]];portConstraint=eastwest;" parent="ibFiL1Bw5MCaEzBGAbg2-98" vertex="1">
          <mxGeometry width="562.6427071401296" height="40" as="geometry" />
        </mxCell>
        <mxCell id="ibFiL1Bw5MCaEzBGAbg2-100" value="Status" style="shape=partialRectangle;html=1;whiteSpace=wrap;connectable=0;overflow=hidden;top=0;left=0;bottom=0;right=0;strokeColor=#666666;align=left;fontStyle=1;fontSize=14;fillColor=#0288D1;fontColor=#FFFFFF;" parent="ibFiL1Bw5MCaEzBGAbg2-99" vertex="1">
          <mxGeometry width="69" height="40" as="geometry" />
        </mxCell>
        <mxCell id="ibFiL1Bw5MCaEzBGAbg2-101" value="System" style="shape=partialRectangle;html=1;whiteSpace=wrap;connectable=0;overflow=hidden;top=0;left=0;bottom=0;right=0;strokeColor=#666666;align=left;fontStyle=1;fontSize=14;fillColor=#0288D1;fontColor=#FFFFFF;" parent="ibFiL1Bw5MCaEzBGAbg2-99" vertex="1">
          <mxGeometry x="69" width="224" height="40" as="geometry" />
        </mxCell>
        <mxCell id="ibFiL1Bw5MCaEzBGAbg2-102" value="Approver" style="shape=partialRectangle;html=1;whiteSpace=wrap;connectable=0;overflow=hidden;top=0;left=0;bottom=0;right=0;strokeColor=#666666;fontStyle=1;fontSize=14;fillColor=#0288D1;fontColor=#FFFFFF;" parent="ibFiL1Bw5MCaEzBGAbg2-99" vertex="1">
          <mxGeometry x="293" width="132" height="40" as="geometry" />
        </mxCell>
        <mxCell id="ibFiL1Bw5MCaEzBGAbg2-103" value="Since" style="shape=partialRectangle;html=1;whiteSpace=wrap;connectable=0;overflow=hidden;top=0;left=0;bottom=0;right=0;strokeColor=#666666;fontStyle=1;fontSize=14;fillColor=#0288D1;fontColor=#FFFFFF;" parent="ibFiL1Bw5MCaEzBGAbg2-99" vertex="1">
          <mxGeometry x="425" width="138" height="40" as="geometry" />
        </mxCell>
        <mxCell id="ibFiL1Bw5MCaEzBGAbg2-104" value="" style="shape=partialRectangle;html=1;whiteSpace=wrap;collapsible=0;dropTarget=0;pointerEvents=0;fillColor=none;top=0;left=0;bottom=0;right=0;points=[[0,0.5],[1,0.5]];portConstraint=eastwest;fontColor=#B3B3B3;" parent="ibFiL1Bw5MCaEzBGAbg2-98" vertex="1">
          <mxGeometry y="40" width="562.6427071401296" height="39" as="geometry" />
        </mxCell>
        <mxCell id="ibFiL1Bw5MCaEzBGAbg2-105" style="shape=partialRectangle;html=1;whiteSpace=wrap;connectable=0;overflow=hidden;fillColor=none;top=0;left=0;bottom=0;right=0;align=left;fontColor=#B3B3B3;" parent="ibFiL1Bw5MCaEzBGAbg2-104" vertex="1">
          <mxGeometry width="69" height="39" as="geometry" />
        </mxCell>
        <mxCell id="ibFiL1Bw5MCaEzBGAbg2-106" value="Strawberry System" style="shape=partialRectangle;html=1;whiteSpace=wrap;connectable=0;overflow=hidden;fillColor=none;top=0;left=0;bottom=0;right=0;align=left;fontColor=#B3B3B3;" parent="ibFiL1Bw5MCaEzBGAbg2-104" vertex="1">
          <mxGeometry x="69" width="224" height="39" as="geometry" />
        </mxCell>
        <mxCell id="ibFiL1Bw5MCaEzBGAbg2-107" value="Lisa G." style="shape=partialRectangle;html=1;whiteSpace=wrap;connectable=0;overflow=hidden;fillColor=none;top=0;left=0;bottom=0;right=0;fontColor=#B3B3B3;" parent="ibFiL1Bw5MCaEzBGAbg2-104" vertex="1">
          <mxGeometry x="293" width="132" height="39" as="geometry" />
        </mxCell>
        <mxCell id="ibFiL1Bw5MCaEzBGAbg2-108" value="January 10, 2021" style="shape=partialRectangle;html=1;whiteSpace=wrap;connectable=0;overflow=hidden;fillColor=none;top=0;left=0;bottom=0;right=0;fontColor=#B3B3B3;" parent="ibFiL1Bw5MCaEzBGAbg2-104" vertex="1">
          <mxGeometry x="425" width="138" height="39" as="geometry" />
        </mxCell>
        <mxCell id="ibFiL1Bw5MCaEzBGAbg2-109" value="" style="shape=partialRectangle;html=1;whiteSpace=wrap;collapsible=0;dropTarget=0;pointerEvents=0;fillColor=none;top=0;left=0;bottom=0;right=0;points=[[0,0.5],[1,0.5]];portConstraint=eastwest;fontColor=#B3B3B3;" parent="ibFiL1Bw5MCaEzBGAbg2-98" vertex="1">
          <mxGeometry y="79" width="562.6427071401296" height="40" as="geometry" />
        </mxCell>
        <mxCell id="ibFiL1Bw5MCaEzBGAbg2-110" style="shape=partialRectangle;html=1;whiteSpace=wrap;connectable=0;overflow=hidden;fillColor=none;top=0;left=0;bottom=0;right=0;align=left;fontColor=#B3B3B3;" parent="ibFiL1Bw5MCaEzBGAbg2-109" vertex="1">
          <mxGeometry width="69" height="40" as="geometry" />
        </mxCell>
        <mxCell id="ibFiL1Bw5MCaEzBGAbg2-111" value="Candle System" style="shape=partialRectangle;html=1;whiteSpace=wrap;connectable=0;overflow=hidden;fillColor=none;top=0;left=0;bottom=0;right=0;align=left;fontColor=#B3B3B3;" parent="ibFiL1Bw5MCaEzBGAbg2-109" vertex="1">
          <mxGeometry x="69" width="224" height="40" as="geometry" />
        </mxCell>
        <mxCell id="ibFiL1Bw5MCaEzBGAbg2-112" value="Crystel K." style="shape=partialRectangle;html=1;whiteSpace=wrap;connectable=0;overflow=hidden;fillColor=none;top=0;left=0;bottom=0;right=0;fontColor=#B3B3B3;" parent="ibFiL1Bw5MCaEzBGAbg2-109" vertex="1">
          <mxGeometry x="293" width="132" height="40" as="geometry" />
        </mxCell>
        <mxCell id="ibFiL1Bw5MCaEzBGAbg2-113" value="February 9, 2021" style="shape=partialRectangle;html=1;whiteSpace=wrap;connectable=0;overflow=hidden;fillColor=none;top=0;left=0;bottom=0;right=0;fontColor=#B3B3B3;" parent="ibFiL1Bw5MCaEzBGAbg2-109" vertex="1">
          <mxGeometry x="425" width="138" height="40" as="geometry" />
        </mxCell>
        <mxCell id="ibFiL1Bw5MCaEzBGAbg2-114" value="" style="shape=partialRectangle;html=1;whiteSpace=wrap;collapsible=0;dropTarget=0;pointerEvents=0;fillColor=none;top=0;left=0;bottom=0;right=0;points=[[0,0.5],[1,0.5]];portConstraint=eastwest;fontColor=#B3B3B3;" parent="ibFiL1Bw5MCaEzBGAbg2-98" vertex="1">
          <mxGeometry y="119" width="562.6427071401296" height="40" as="geometry" />
        </mxCell>
        <mxCell id="ibFiL1Bw5MCaEzBGAbg2-115" style="shape=partialRectangle;html=1;whiteSpace=wrap;connectable=0;overflow=hidden;fillColor=none;top=0;left=0;bottom=0;right=0;align=left;fontColor=#B3B3B3;" parent="ibFiL1Bw5MCaEzBGAbg2-114" vertex="1">
          <mxGeometry width="69" height="40" as="geometry" />
        </mxCell>
        <mxCell id="ibFiL1Bw5MCaEzBGAbg2-116" value="Bookshelf System" style="shape=partialRectangle;html=1;whiteSpace=wrap;connectable=0;overflow=hidden;fillColor=none;top=0;left=0;bottom=0;right=0;align=left;fontColor=#B3B3B3;" parent="ibFiL1Bw5MCaEzBGAbg2-114" vertex="1">
          <mxGeometry x="69" width="224" height="40" as="geometry" />
        </mxCell>
        <mxCell id="ibFiL1Bw5MCaEzBGAbg2-117" value="Chris O." style="shape=partialRectangle;html=1;whiteSpace=wrap;connectable=0;overflow=hidden;fillColor=none;top=0;left=0;bottom=0;right=0;fontColor=#B3B3B3;" parent="ibFiL1Bw5MCaEzBGAbg2-114" vertex="1">
          <mxGeometry x="293" width="132" height="40" as="geometry" />
        </mxCell>
        <mxCell id="ibFiL1Bw5MCaEzBGAbg2-118" value="December 1, 2020" style="shape=partialRectangle;html=1;whiteSpace=wrap;connectable=0;overflow=hidden;fillColor=none;top=0;left=0;bottom=0;right=0;fontColor=#B3B3B3;" parent="ibFiL1Bw5MCaEzBGAbg2-114" vertex="1">
          <mxGeometry x="425" width="138" height="40" as="geometry" />
        </mxCell>
        <mxCell id="ibFiL1Bw5MCaEzBGAbg2-119" value="" style="pointerEvents=1;shadow=0;dashed=0;html=1;strokeColor=none;labelPosition=center;verticalLabelPosition=bottom;verticalAlign=top;align=center;outlineConnect=0;shape=mxgraph.veeam2.critical;fontSize=14;fontColor=#FFFFFF;fillColor=#FF0000;" parent="ibFiL1Bw5MCaEzBGAbg2-91" vertex="1">
          <mxGeometry x="28.938144329896907" y="140.9685230024213" width="20.963917525773198" height="20.847457627118644" as="geometry" />
        </mxCell>
        <mxCell id="ibFiL1Bw5MCaEzBGAbg2-120" value="" style="rounded=0;whiteSpace=wrap;html=1;fillColor=#3333FF;strokeColor=none;" parent="ibFiL1Bw5MCaEzBGAbg2-1" vertex="1">
          <mxGeometry x="646" y="1216" width="1217" height="60" as="geometry" />
        </mxCell>
        <mxCell id="ibFiL1Bw5MCaEzBGAbg2-121" value="&lt;font style=&quot;font-size: 14px&quot;&gt;FEEDBACK&lt;/font&gt;" style="rounded=1;whiteSpace=wrap;html=1;fillColor=#FF8000;strokeColor=#FF8000;fontColor=#FFFFFF;" parent="ibFiL1Bw5MCaEzBGAbg2-1" vertex="1">
          <mxGeometry x="1690" y="1227.5" width="120" height="40" as="geometry" />
        </mxCell>
        <mxCell id="ibFiL1Bw5MCaEzBGAbg2-122" value="" style="shape=image;html=1;verticalAlign=top;verticalLabelPosition=bottom;labelBackgroundColor=#ffffff;imageAspect=0;aspect=fixed;image=https://cdn3.iconfinder.com/data/icons/social-media-2125/78/bell-128.png;strokeColor=#FF8000;fillColor=#FF8000;fontColor=#FFFFFF;" parent="ibFiL1Bw5MCaEzBGAbg2-1" vertex="1">
          <mxGeometry x="1628" y="1227.5" width="37" height="37" as="geometry" />
        </mxCell>
        <mxCell id="ibFiL1Bw5MCaEzBGAbg2-123" value="" style="whiteSpace=wrap;html=1;shape=mxgraph.basic.octagon2;align=center;verticalAlign=middle;dx=12;shadow=0;sketch=0;fontSize=20;fontColor=#808080;fillColor=#FF8000;strokeColor=#FF8000;" parent="ibFiL1Bw5MCaEzBGAbg2-1" vertex="1">
          <mxGeometry x="656" y="1222.5" width="56" height="42" as="geometry" />
        </mxCell>
        <mxCell id="ibFiL1Bw5MCaEzBGAbg2-124" value="IMA" style="text;html=1;strokeColor=none;fillColor=none;align=center;verticalAlign=middle;whiteSpace=wrap;rounded=0;shadow=0;sketch=0;fontSize=20;fontColor=#FFFFFF;fontStyle=1" parent="ibFiL1Bw5MCaEzBGAbg2-1" vertex="1">
          <mxGeometry x="722" y="1236" width="40" height="20" as="geometry" />
        </mxCell>
        <mxCell id="ibFiL1Bw5MCaEzBGAbg2-125" value="" style="html=1;verticalLabelPosition=bottom;align=center;labelBackgroundColor=#ffffff;verticalAlign=top;strokeWidth=2;shadow=0;dashed=0;shape=mxgraph.ios7.icons.user;sketch=0;fontSize=20;fontColor=#FFFFFF;fillColor=#FFFFFF;" parent="ibFiL1Bw5MCaEzBGAbg2-1" vertex="1">
          <mxGeometry x="1476" y="1232.5" width="30" height="30" as="geometry" />
        </mxCell>
        <mxCell id="ibFiL1Bw5MCaEzBGAbg2-126" value="John Doe" style="text;html=1;strokeColor=none;fillColor=none;align=center;verticalAlign=middle;whiteSpace=wrap;rounded=0;shadow=0;sketch=0;fontSize=19;fontColor=#FFFFFF;" parent="ibFiL1Bw5MCaEzBGAbg2-1" vertex="1">
          <mxGeometry x="1519.5" y="1237.5" width="94" height="20" as="geometry" />
        </mxCell>
        <mxCell id="ibFiL1Bw5MCaEzBGAbg2-127" value="&amp;lt;Classification Here&amp;gt;" style="rounded=0;whiteSpace=wrap;html=1;shadow=0;sketch=0;fontSize=12;align=center;fillColor=#FFFF33;strokeColor=none;" parent="ibFiL1Bw5MCaEzBGAbg2-1" vertex="1">
          <mxGeometry x="646" y="1196" width="1218" height="20" as="geometry" />
        </mxCell>
        <mxCell id="ibFiL1Bw5MCaEzBGAbg2-128" value="" style="shape=rect;strokeColor=#eeeeee;shadow=1;align=left;fillColor=#FFFFFF;fontStyle=1" parent="ibFiL1Bw5MCaEzBGAbg2-1" vertex="1">
          <mxGeometry x="2176.6800000000003" y="1418" width="589" height="378" as="geometry" />
        </mxCell>
        <mxCell id="ibFiL1Bw5MCaEzBGAbg2-129" value="" style="shape=rect;strokeColor=#eeeeee;fillColor=#ffffff;resizeWidth=1;" parent="ibFiL1Bw5MCaEzBGAbg2-128" vertex="1">
          <mxGeometry width="589" height="64" relative="1" as="geometry" />
        </mxCell>
        <mxCell id="ibFiL1Bw5MCaEzBGAbg2-130" value="Systems - Assigned" style="text;fontSize=18;fontColor=#0288D1;fontStyle=1" parent="ibFiL1Bw5MCaEzBGAbg2-129" vertex="1">
          <mxGeometry width="235" height="20" relative="1" as="geometry">
            <mxPoint x="65" y="22" as="offset" />
          </mxGeometry>
        </mxCell>
        <mxCell id="ibFiL1Bw5MCaEzBGAbg2-131" value="" style="shape=image;html=1;verticalAlign=top;verticalLabelPosition=bottom;labelBackgroundColor=#ffffff;imageAspect=0;aspect=fixed;image=https://cdn0.iconfinder.com/data/icons/google-material-design-3-0/48/ic_assignment_ind_48px-128.png;fillColor=#0288D1;fontColor=#FFFFFF;" parent="ibFiL1Bw5MCaEzBGAbg2-129" vertex="1">
          <mxGeometry x="3.7595744680851064" y="1.9393939393939394" width="26.666666666666668" height="26.666666666666668" as="geometry" />
        </mxCell>
        <mxCell id="ibFiL1Bw5MCaEzBGAbg2-132" value="" style="shape=rect;strokeColor=#eeeeee;fillColor=#ffffff;;whiteSpace=wrap;align=left;spacingLeft=16;fontColor=#666666;verticalAlign=top;spacingTop=10;fontSize=13;spacingRight=16;" parent="ibFiL1Bw5MCaEzBGAbg2-128" vertex="1">
          <mxGeometry y="250" width="589" height="128" as="geometry" />
        </mxCell>
        <mxCell id="ibFiL1Bw5MCaEzBGAbg2-133" value="" style="shape=rect;strokeColor=#eeeeee;fillColor=#ffffff;;whiteSpace=wrap;align=left;spacingLeft=14;fontColor=#BDBDBD;resizeWidth=1;" parent="ibFiL1Bw5MCaEzBGAbg2-128" vertex="1">
          <mxGeometry y="1" width="589" height="48" relative="1" as="geometry">
            <mxPoint y="-48" as="offset" />
          </mxGeometry>
        </mxCell>
        <mxCell id="ibFiL1Bw5MCaEzBGAbg2-134" value="OPEN" style="shape=rect;strokeColor=none;fillColor=#0288D1;fontColor=#FFFFFF;fontStyle=1;fontSize=13;" parent="ibFiL1Bw5MCaEzBGAbg2-133" vertex="1">
          <mxGeometry x="1" y="1" width="70" height="36" relative="1" as="geometry">
            <mxPoint x="-75" y="-42" as="offset" />
          </mxGeometry>
        </mxCell>
        <mxCell id="ibFiL1Bw5MCaEzBGAbg2-135" value="" style="shape=table;html=1;whiteSpace=wrap;startSize=0;container=1;collapsible=0;childLayout=tableLayout;shadow=0;strokeColor=none;fontColor=#0288D1;" parent="ibFiL1Bw5MCaEzBGAbg2-128" vertex="1">
          <mxGeometry x="12" y="83" width="562.1666666666665" height="160" as="geometry" />
        </mxCell>
        <mxCell id="ibFiL1Bw5MCaEzBGAbg2-136" value="" style="shape=partialRectangle;html=1;whiteSpace=wrap;collapsible=0;dropTarget=0;pointerEvents=0;fillColor=none;top=0;left=0;bottom=0;right=0;points=[[0,0.5],[1,0.5]];portConstraint=eastwest;" parent="ibFiL1Bw5MCaEzBGAbg2-135" vertex="1">
          <mxGeometry width="562.1666666666665" height="40" as="geometry" />
        </mxCell>
        <mxCell id="ibFiL1Bw5MCaEzBGAbg2-137" value="Criticality" style="shape=partialRectangle;html=1;whiteSpace=wrap;connectable=0;overflow=hidden;top=0;left=0;bottom=0;right=0;strokeColor=#666666;align=left;fontStyle=1;fontSize=14;fillColor=#0288D1;fontColor=#FFFFFF;" parent="ibFiL1Bw5MCaEzBGAbg2-136" vertex="1">
          <mxGeometry width="97" height="40" as="geometry" />
        </mxCell>
        <mxCell id="ibFiL1Bw5MCaEzBGAbg2-138" value="System" style="shape=partialRectangle;html=1;whiteSpace=wrap;connectable=0;overflow=hidden;top=0;left=0;bottom=0;right=0;strokeColor=#666666;align=left;fontStyle=1;fontSize=14;fillColor=#0288D1;fontColor=#FFFFFF;" parent="ibFiL1Bw5MCaEzBGAbg2-136" vertex="1">
          <mxGeometry x="97" width="165" height="40" as="geometry" />
        </mxCell>
        <mxCell id="ibFiL1Bw5MCaEzBGAbg2-139" value="Since" style="shape=partialRectangle;html=1;whiteSpace=wrap;connectable=0;overflow=hidden;top=0;left=0;bottom=0;right=0;strokeColor=#666666;fontStyle=1;fontSize=14;fillColor=#0288D1;fontColor=#FFFFFF;" parent="ibFiL1Bw5MCaEzBGAbg2-136" vertex="1">
          <mxGeometry x="262" width="300" height="40" as="geometry" />
        </mxCell>
        <mxCell id="ibFiL1Bw5MCaEzBGAbg2-140" value="" style="shape=partialRectangle;html=1;whiteSpace=wrap;collapsible=0;dropTarget=0;pointerEvents=0;fillColor=none;top=0;left=0;bottom=0;right=0;points=[[0,0.5],[1,0.5]];portConstraint=eastwest;fontColor=#B3B3B3;" parent="ibFiL1Bw5MCaEzBGAbg2-135" vertex="1">
          <mxGeometry y="40" width="562.1666666666665" height="40" as="geometry" />
        </mxCell>
        <mxCell id="ibFiL1Bw5MCaEzBGAbg2-141" style="shape=partialRectangle;html=1;whiteSpace=wrap;connectable=0;overflow=hidden;fillColor=none;top=0;left=0;bottom=0;right=0;align=left;fontColor=#B3B3B3;" parent="ibFiL1Bw5MCaEzBGAbg2-140" vertex="1">
          <mxGeometry width="97" height="40" as="geometry" />
        </mxCell>
        <mxCell id="ibFiL1Bw5MCaEzBGAbg2-142" value="Facebook System" style="shape=partialRectangle;html=1;whiteSpace=wrap;connectable=0;overflow=hidden;fillColor=none;top=0;left=0;bottom=0;right=0;align=left;fontColor=#B3B3B3;" parent="ibFiL1Bw5MCaEzBGAbg2-140" vertex="1">
          <mxGeometry x="97" width="165" height="40" as="geometry" />
        </mxCell>
        <mxCell id="ibFiL1Bw5MCaEzBGAbg2-143" value="February 11, 2021" style="shape=partialRectangle;html=1;whiteSpace=wrap;connectable=0;overflow=hidden;fillColor=none;top=0;left=0;bottom=0;right=0;fontColor=#B3B3B3;" parent="ibFiL1Bw5MCaEzBGAbg2-140" vertex="1">
          <mxGeometry x="262" width="300" height="40" as="geometry" />
        </mxCell>
        <mxCell id="ibFiL1Bw5MCaEzBGAbg2-144" value="" style="shape=partialRectangle;html=1;whiteSpace=wrap;collapsible=0;dropTarget=0;pointerEvents=0;fillColor=none;top=0;left=0;bottom=0;right=0;points=[[0,0.5],[1,0.5]];portConstraint=eastwest;fontColor=#B3B3B3;" parent="ibFiL1Bw5MCaEzBGAbg2-135" vertex="1">
          <mxGeometry y="80" width="562.1666666666665" height="40" as="geometry" />
        </mxCell>
        <mxCell id="ibFiL1Bw5MCaEzBGAbg2-145" style="shape=partialRectangle;html=1;whiteSpace=wrap;connectable=0;overflow=hidden;fillColor=none;top=0;left=0;bottom=0;right=0;align=left;fontColor=#B3B3B3;" parent="ibFiL1Bw5MCaEzBGAbg2-144" vertex="1">
          <mxGeometry width="97" height="40" as="geometry" />
        </mxCell>
        <mxCell id="ibFiL1Bw5MCaEzBGAbg2-146" value="YouTube System" style="shape=partialRectangle;html=1;whiteSpace=wrap;connectable=0;overflow=hidden;fillColor=none;top=0;left=0;bottom=0;right=0;align=left;fontColor=#B3B3B3;" parent="ibFiL1Bw5MCaEzBGAbg2-144" vertex="1">
          <mxGeometry x="97" width="165" height="40" as="geometry" />
        </mxCell>
        <mxCell id="ibFiL1Bw5MCaEzBGAbg2-147" value="February 11, 2021" style="shape=partialRectangle;html=1;whiteSpace=wrap;connectable=0;overflow=hidden;fillColor=none;top=0;left=0;bottom=0;right=0;fontColor=#B3B3B3;" parent="ibFiL1Bw5MCaEzBGAbg2-144" vertex="1">
          <mxGeometry x="262" width="300" height="40" as="geometry" />
        </mxCell>
        <mxCell id="ibFiL1Bw5MCaEzBGAbg2-148" value="" style="shape=partialRectangle;html=1;whiteSpace=wrap;collapsible=0;dropTarget=0;pointerEvents=0;fillColor=none;top=0;left=0;bottom=0;right=0;points=[[0,0.5],[1,0.5]];portConstraint=eastwest;fontColor=#B3B3B3;" parent="ibFiL1Bw5MCaEzBGAbg2-135" vertex="1">
          <mxGeometry y="120" width="562.1666666666665" height="40" as="geometry" />
        </mxCell>
        <mxCell id="ibFiL1Bw5MCaEzBGAbg2-149" style="shape=partialRectangle;html=1;whiteSpace=wrap;connectable=0;overflow=hidden;fillColor=none;top=0;left=0;bottom=0;right=0;align=left;fontColor=#B3B3B3;" parent="ibFiL1Bw5MCaEzBGAbg2-148" vertex="1">
          <mxGeometry width="97" height="40" as="geometry" />
        </mxCell>
        <mxCell id="ibFiL1Bw5MCaEzBGAbg2-150" value="Twitter System" style="shape=partialRectangle;html=1;whiteSpace=wrap;connectable=0;overflow=hidden;fillColor=none;top=0;left=0;bottom=0;right=0;align=left;fontColor=#B3B3B3;" parent="ibFiL1Bw5MCaEzBGAbg2-148" vertex="1">
          <mxGeometry x="97" width="165" height="40" as="geometry" />
        </mxCell>
        <mxCell id="ibFiL1Bw5MCaEzBGAbg2-151" value="February 11, 2021" style="shape=partialRectangle;html=1;whiteSpace=wrap;connectable=0;overflow=hidden;fillColor=none;top=0;left=0;bottom=0;right=0;fontColor=#B3B3B3;" parent="ibFiL1Bw5MCaEzBGAbg2-148" vertex="1">
          <mxGeometry x="262" width="300" height="40" as="geometry" />
        </mxCell>
        <mxCell id="ibFiL1Bw5MCaEzBGAbg2-152" value="" style="shape=rect;strokeColor=#eeeeee;shadow=1;fillColor=#FFFFFF;align=left;" parent="ibFiL1Bw5MCaEzBGAbg2-1" vertex="1">
          <mxGeometry x="1283" y="1751" width="575" height="392" as="geometry" />
        </mxCell>
        <mxCell id="ibFiL1Bw5MCaEzBGAbg2-153" value="" style="shape=rect;strokeColor=#eeeeee;fillColor=#ffffff;resizeWidth=1;" parent="ibFiL1Bw5MCaEzBGAbg2-152" vertex="1">
          <mxGeometry width="558.9999999999995" height="70" relative="1" as="geometry">
            <mxPoint x="877" y="537" as="offset" />
          </mxGeometry>
        </mxCell>
        <mxCell id="ibFiL1Bw5MCaEzBGAbg2-154" value="" style="shape=image;html=1;verticalAlign=top;verticalLabelPosition=bottom;labelBackgroundColor=#ffffff;imageAspect=0;aspect=fixed;image=https://cdn3.iconfinder.com/data/icons/solid-locations-icon-set/64/Working_Tools_2-128.png;fontFamily=Helvetica;fontSize=12;fontColor=#000000;align=center;fillColor=#999999;" parent="ibFiL1Bw5MCaEzBGAbg2-153" vertex="1">
          <mxGeometry width="40" height="40" relative="1" as="geometry">
            <mxPoint x="15" y="15" as="offset" />
          </mxGeometry>
        </mxCell>
        <mxCell id="ibFiL1Bw5MCaEzBGAbg2-155" value="My Systems - In Progress" style="text;fontSize=18;fontColor=#0288D1;fontStyle=1" parent="ibFiL1Bw5MCaEzBGAbg2-153" vertex="1">
          <mxGeometry width="235" height="20" relative="1" as="geometry">
            <mxPoint x="65" y="22" as="offset" />
          </mxGeometry>
        </mxCell>
        <mxCell id="ibFiL1Bw5MCaEzBGAbg2-156" value="" style="shape=rect;strokeColor=#eeeeee;fillColor=#ffffff;;whiteSpace=wrap;align=left;spacingLeft=16;fontColor=#666666;verticalAlign=top;spacingTop=10;fontSize=13;spacingRight=16;" parent="ibFiL1Bw5MCaEzBGAbg2-152" vertex="1">
          <mxGeometry x="877.0000000000009" y="799.800925925926" width="558.9999999999995" height="132.74074074074073" as="geometry" />
        </mxCell>
        <mxCell id="ibFiL1Bw5MCaEzBGAbg2-157" value="" style="shape=rect;strokeColor=#eeeeee;fillColor=#ffffff;;whiteSpace=wrap;align=left;spacingLeft=14;fontColor=#BDBDBD;resizeWidth=1;" parent="ibFiL1Bw5MCaEzBGAbg2-152" vertex="1">
          <mxGeometry y="1" width="558.9999999999995" height="48" relative="1" as="geometry">
            <mxPoint x="877" y="489" as="offset" />
          </mxGeometry>
        </mxCell>
        <mxCell id="ibFiL1Bw5MCaEzBGAbg2-158" value="OPEN" style="shape=rect;strokeColor=none;fillColor=#0288D1;fontColor=#FFFFFF;fontStyle=1;fontSize=13;" parent="ibFiL1Bw5MCaEzBGAbg2-157" vertex="1">
          <mxGeometry x="1" y="1" width="70" height="36" relative="1" as="geometry">
            <mxPoint x="-75" y="-42" as="offset" />
          </mxGeometry>
        </mxCell>
        <mxCell id="ibFiL1Bw5MCaEzBGAbg2-159" value="" style="shape=table;html=1;whiteSpace=wrap;startSize=0;container=1;collapsible=0;childLayout=tableLayout;shadow=0;strokeColor=none;fontColor=#0288D1;" parent="ibFiL1Bw5MCaEzBGAbg2-152" vertex="1">
          <mxGeometry x="892.0000000000009" y="629.3541666666667" width="546.9999999999995" height="163.33333333333334" as="geometry" />
        </mxCell>
        <mxCell id="ibFiL1Bw5MCaEzBGAbg2-160" value="" style="shape=partialRectangle;html=1;whiteSpace=wrap;collapsible=0;dropTarget=0;pointerEvents=0;fillColor=none;top=0;left=0;bottom=0;right=0;points=[[0,0.5],[1,0.5]];portConstraint=eastwest;" parent="ibFiL1Bw5MCaEzBGAbg2-159" vertex="1">
          <mxGeometry width="546.9999999999995" height="41" as="geometry" />
        </mxCell>
        <mxCell id="ibFiL1Bw5MCaEzBGAbg2-161" value="System" style="shape=partialRectangle;html=1;whiteSpace=wrap;connectable=0;overflow=hidden;top=0;left=0;bottom=0;right=0;strokeColor=#666666;align=left;fontStyle=1;fontSize=14;fillColor=#0288D1;fontColor=#FFFFFF;" parent="ibFiL1Bw5MCaEzBGAbg2-160" vertex="1">
          <mxGeometry width="141" height="41" as="geometry" />
        </mxCell>
        <mxCell id="ibFiL1Bw5MCaEzBGAbg2-162" value="Step" style="shape=partialRectangle;html=1;whiteSpace=wrap;connectable=0;overflow=hidden;top=0;left=0;bottom=0;right=0;strokeColor=#666666;fontStyle=1;fontSize=14;fillColor=#0288D1;fontColor=#FFFFFF;" parent="ibFiL1Bw5MCaEzBGAbg2-160" vertex="1">
          <mxGeometry x="141" width="180" height="41" as="geometry" />
        </mxCell>
        <mxCell id="ibFiL1Bw5MCaEzBGAbg2-163" value="Since" style="shape=partialRectangle;html=1;whiteSpace=wrap;connectable=0;overflow=hidden;top=0;left=0;bottom=0;right=0;strokeColor=#666666;fontStyle=1;fontSize=14;fillColor=#0288D1;fontColor=#FFFFFF;" parent="ibFiL1Bw5MCaEzBGAbg2-160" vertex="1">
          <mxGeometry x="321" width="226" height="41" as="geometry" />
        </mxCell>
        <mxCell id="ibFiL1Bw5MCaEzBGAbg2-164" value="" style="shape=partialRectangle;html=1;whiteSpace=wrap;collapsible=0;dropTarget=0;pointerEvents=0;fillColor=none;top=0;left=0;bottom=0;right=0;points=[[0,0.5],[1,0.5]];portConstraint=eastwest;fontColor=#B3B3B3;" parent="ibFiL1Bw5MCaEzBGAbg2-159" vertex="1">
          <mxGeometry y="41" width="546.9999999999995" height="40" as="geometry" />
        </mxCell>
        <mxCell id="ibFiL1Bw5MCaEzBGAbg2-165" value="Peony System" style="shape=partialRectangle;html=1;whiteSpace=wrap;connectable=0;overflow=hidden;fillColor=none;top=0;left=0;bottom=0;right=0;align=left;fontColor=#B3B3B3;" parent="ibFiL1Bw5MCaEzBGAbg2-164" vertex="1">
          <mxGeometry width="141" height="40" as="geometry" />
        </mxCell>
        <mxCell id="ibFiL1Bw5MCaEzBGAbg2-166" value="Step 3" style="shape=partialRectangle;html=1;whiteSpace=wrap;connectable=0;overflow=hidden;fillColor=none;top=0;left=0;bottom=0;right=0;fontColor=#B3B3B3;" parent="ibFiL1Bw5MCaEzBGAbg2-164" vertex="1">
          <mxGeometry x="141" width="180" height="40" as="geometry" />
        </mxCell>
        <mxCell id="ibFiL1Bw5MCaEzBGAbg2-167" value="February 8, 2021" style="shape=partialRectangle;html=1;whiteSpace=wrap;connectable=0;overflow=hidden;fillColor=none;top=0;left=0;bottom=0;right=0;fontColor=#B3B3B3;" parent="ibFiL1Bw5MCaEzBGAbg2-164" vertex="1">
          <mxGeometry x="321" width="226" height="40" as="geometry" />
        </mxCell>
        <mxCell id="ibFiL1Bw5MCaEzBGAbg2-168" value="" style="shape=partialRectangle;html=1;whiteSpace=wrap;collapsible=0;dropTarget=0;pointerEvents=0;fillColor=none;top=0;left=0;bottom=0;right=0;points=[[0,0.5],[1,0.5]];portConstraint=eastwest;fontColor=#B3B3B3;" parent="ibFiL1Bw5MCaEzBGAbg2-159" vertex="1">
          <mxGeometry y="81" width="546.9999999999995" height="42" as="geometry" />
        </mxCell>
        <mxCell id="ibFiL1Bw5MCaEzBGAbg2-169" value="Tulips System" style="shape=partialRectangle;html=1;whiteSpace=wrap;connectable=0;overflow=hidden;fillColor=none;top=0;left=0;bottom=0;right=0;align=left;fontColor=#B3B3B3;" parent="ibFiL1Bw5MCaEzBGAbg2-168" vertex="1">
          <mxGeometry width="141" height="42" as="geometry" />
        </mxCell>
        <mxCell id="ibFiL1Bw5MCaEzBGAbg2-170" value="Step 3" style="shape=partialRectangle;html=1;whiteSpace=wrap;connectable=0;overflow=hidden;fillColor=none;top=0;left=0;bottom=0;right=0;fontColor=#B3B3B3;" parent="ibFiL1Bw5MCaEzBGAbg2-168" vertex="1">
          <mxGeometry x="141" width="180" height="42" as="geometry" />
        </mxCell>
        <mxCell id="ibFiL1Bw5MCaEzBGAbg2-171" value="February 9, 2021" style="shape=partialRectangle;html=1;whiteSpace=wrap;connectable=0;overflow=hidden;fillColor=none;top=0;left=0;bottom=0;right=0;fontColor=#B3B3B3;" parent="ibFiL1Bw5MCaEzBGAbg2-168" vertex="1">
          <mxGeometry x="321" width="226" height="42" as="geometry" />
        </mxCell>
        <mxCell id="ibFiL1Bw5MCaEzBGAbg2-172" value="" style="shape=partialRectangle;html=1;whiteSpace=wrap;collapsible=0;dropTarget=0;pointerEvents=0;fillColor=none;top=0;left=0;bottom=0;right=0;points=[[0,0.5],[1,0.5]];portConstraint=eastwest;fontColor=#B3B3B3;" parent="ibFiL1Bw5MCaEzBGAbg2-159" vertex="1">
          <mxGeometry y="123" width="546.9999999999995" height="40" as="geometry" />
        </mxCell>
        <mxCell id="ibFiL1Bw5MCaEzBGAbg2-173" value="Roses System" style="shape=partialRectangle;html=1;whiteSpace=wrap;connectable=0;overflow=hidden;fillColor=none;top=0;left=0;bottom=0;right=0;align=left;fontColor=#B3B3B3;" parent="ibFiL1Bw5MCaEzBGAbg2-172" vertex="1">
          <mxGeometry width="141" height="40" as="geometry" />
        </mxCell>
        <mxCell id="ibFiL1Bw5MCaEzBGAbg2-174" value="Step 1" style="shape=partialRectangle;html=1;whiteSpace=wrap;connectable=0;overflow=hidden;fillColor=none;top=0;left=0;bottom=0;right=0;fontColor=#B3B3B3;" parent="ibFiL1Bw5MCaEzBGAbg2-172" vertex="1">
          <mxGeometry x="141" width="180" height="40" as="geometry" />
        </mxCell>
        <mxCell id="ibFiL1Bw5MCaEzBGAbg2-175" value="February 11, 2021" style="shape=partialRectangle;html=1;whiteSpace=wrap;connectable=0;overflow=hidden;fillColor=none;top=0;left=0;bottom=0;right=0;fontColor=#B3B3B3;" parent="ibFiL1Bw5MCaEzBGAbg2-172" vertex="1">
          <mxGeometry x="321" width="226" height="40" as="geometry" />
        </mxCell>
        <mxCell id="ibFiL1Bw5MCaEzBGAbg2-176" value="" style="shape=rect;strokeColor=#eeeeee;fillColor=#ffffff;resizeWidth=1;" parent="ibFiL1Bw5MCaEzBGAbg2-152" vertex="1">
          <mxGeometry x="6" y="3.05" width="569" height="83.95" as="geometry" />
        </mxCell>
        <mxCell id="ibFiL1Bw5MCaEzBGAbg2-177" value="Systems - By Priority" style="text;fontSize=18;fontColor=#0288D1;fontStyle=1" parent="ibFiL1Bw5MCaEzBGAbg2-176" vertex="1">
          <mxGeometry width="235" height="20" relative="1" as="geometry">
            <mxPoint x="69" y="33.95" as="offset" />
          </mxGeometry>
        </mxCell>
        <mxCell id="ibFiL1Bw5MCaEzBGAbg2-178" value="" style="pointerEvents=1;shadow=0;dashed=0;html=1;strokeColor=none;fillColor=#505050;labelPosition=center;verticalLabelPosition=bottom;verticalAlign=top;outlineConnect=0;align=center;shape=mxgraph.office.concepts.clock;fontSize=18;fontColor=#7EA6E0;" parent="ibFiL1Bw5MCaEzBGAbg2-176" vertex="1">
          <mxGeometry x="5.07" y="19.19" width="51.93" height="53.97" as="geometry" />
        </mxCell>
        <mxCell id="ibFiL1Bw5MCaEzBGAbg2-179" value="" style="html=1;verticalLabelPosition=bottom;align=center;labelBackgroundColor=#ffffff;verticalAlign=top;strokeWidth=4;strokeColor=#0080F0;shadow=0;dashed=0;shape=mxgraph.ios7.icons.pie_chart;fillColor=#FFFFFF;fontSize=18;fontColor=#7EA6E0;" parent="ibFiL1Bw5MCaEzBGAbg2-152" vertex="1">
          <mxGeometry x="135" y="113.74093264248707" width="238" height="205.139896373057" as="geometry" />
        </mxCell>
        <mxCell id="ibFiL1Bw5MCaEzBGAbg2-180" value="Critical" style="text;html=1;resizable=0;autosize=1;align=center;verticalAlign=middle;points=[];fillColor=none;strokeColor=none;rounded=0;shadow=0;fontSize=18;fontColor=#7EA6E0;" parent="ibFiL1Bw5MCaEzBGAbg2-152" vertex="1">
          <mxGeometry x="265" y="156.3937823834197" width="65" height="26" as="geometry" />
        </mxCell>
        <mxCell id="ibFiL1Bw5MCaEzBGAbg2-181" value="Major" style="text;html=1;resizable=0;autosize=1;align=center;verticalAlign=middle;points=[];fillColor=none;strokeColor=none;rounded=0;shadow=0;fontSize=18;fontColor=#7EA6E0;" parent="ibFiL1Bw5MCaEzBGAbg2-152" vertex="1">
          <mxGeometry x="290" y="231.54404145077723" width="55" height="26" as="geometry" />
        </mxCell>
        <mxCell id="ibFiL1Bw5MCaEzBGAbg2-182" value="" style="shape=rect;strokeColor=#eeeeee;shadow=1;fillColor=#FFFFFF;" parent="ibFiL1Bw5MCaEzBGAbg2-1" vertex="1">
          <mxGeometry x="1270.5" y="1313" width="592" height="410" as="geometry" />
        </mxCell>
        <mxCell id="ibFiL1Bw5MCaEzBGAbg2-183" value="" style="shape=rect;strokeColor=#eeeeee;fillColor=#ffffff;resizeWidth=1;" parent="ibFiL1Bw5MCaEzBGAbg2-182" vertex="1">
          <mxGeometry width="592" height="70" relative="1" as="geometry" />
        </mxCell>
        <mxCell id="ibFiL1Bw5MCaEzBGAbg2-184" value="" style="shape=image;html=1;verticalAlign=top;verticalLabelPosition=bottom;labelBackgroundColor=#ffffff;imageAspect=0;aspect=fixed;image=https://cdn4.iconfinder.com/data/icons/top-search-7/128/_people_users_people_team_leader_group_community-16-128.png;fontFamily=Helvetica;fontSize=12;fontColor=#000000;align=center;fillColor=#999999;" parent="ibFiL1Bw5MCaEzBGAbg2-183" vertex="1">
          <mxGeometry width="40" height="40" relative="1" as="geometry">
            <mxPoint x="15" y="15" as="offset" />
          </mxGeometry>
        </mxCell>
        <mxCell id="ibFiL1Bw5MCaEzBGAbg2-185" value="Systems - With IT Team" style="text;fontSize=18;fontColor=#0288D1;fontStyle=1" parent="ibFiL1Bw5MCaEzBGAbg2-183" vertex="1">
          <mxGeometry width="235" height="20" relative="1" as="geometry">
            <mxPoint x="65" y="21" as="offset" />
          </mxGeometry>
        </mxCell>
        <mxCell id="ibFiL1Bw5MCaEzBGAbg2-186" value="" style="shape=rect;strokeColor=#eeeeee;fillColor=#ffffff;;whiteSpace=wrap;align=left;spacingLeft=16;fontColor=#666666;verticalAlign=top;spacingTop=10;fontSize=13;spacingRight=16;" parent="ibFiL1Bw5MCaEzBGAbg2-182" vertex="1">
          <mxGeometry y="271.16402116402116" width="592" height="138.83597883597884" as="geometry" />
        </mxCell>
        <mxCell id="ibFiL1Bw5MCaEzBGAbg2-187" value="" style="shape=rect;strokeColor=#eeeeee;fillColor=#ffffff;;whiteSpace=wrap;align=left;spacingLeft=14;fontColor=#BDBDBD;resizeWidth=1;" parent="ibFiL1Bw5MCaEzBGAbg2-182" vertex="1">
          <mxGeometry y="1" width="592" height="48" relative="1" as="geometry">
            <mxPoint y="-48" as="offset" />
          </mxGeometry>
        </mxCell>
        <mxCell id="ibFiL1Bw5MCaEzBGAbg2-188" value="OPEN" style="shape=rect;strokeColor=none;fontStyle=1;fontSize=13;fillColor=#0288D1;fontColor=#FFFFFF;" parent="ibFiL1Bw5MCaEzBGAbg2-187" vertex="1">
          <mxGeometry x="1" y="1" width="70" height="36" relative="1" as="geometry">
            <mxPoint x="-75" y="-42" as="offset" />
          </mxGeometry>
        </mxCell>
        <mxCell id="ibFiL1Bw5MCaEzBGAbg2-189" value="" style="shape=table;html=1;whiteSpace=wrap;startSize=0;container=1;collapsible=0;childLayout=tableLayout;shadow=0;strokeColor=none;fontColor=#0288D1;" parent="ibFiL1Bw5MCaEzBGAbg2-182" vertex="1">
          <mxGeometry x="14" y="87" width="561" height="160" as="geometry" />
        </mxCell>
        <mxCell id="ibFiL1Bw5MCaEzBGAbg2-190" value="" style="shape=partialRectangle;html=1;whiteSpace=wrap;collapsible=0;dropTarget=0;pointerEvents=0;fillColor=none;top=0;left=0;bottom=0;right=0;points=[[0,0.5],[1,0.5]];portConstraint=eastwest;" parent="ibFiL1Bw5MCaEzBGAbg2-189" vertex="1">
          <mxGeometry width="561" height="40" as="geometry" />
        </mxCell>
        <mxCell id="ibFiL1Bw5MCaEzBGAbg2-191" value="Priority" style="shape=partialRectangle;html=1;whiteSpace=wrap;connectable=0;overflow=hidden;top=0;left=0;bottom=0;right=0;strokeColor=#666666;align=left;fontStyle=1;fontSize=14;fillColor=#0288D1;fontColor=#FFFFFF;" parent="ibFiL1Bw5MCaEzBGAbg2-190" vertex="1">
          <mxGeometry width="71" height="40" as="geometry" />
        </mxCell>
        <mxCell id="ibFiL1Bw5MCaEzBGAbg2-192" value="System" style="shape=partialRectangle;html=1;whiteSpace=wrap;connectable=0;overflow=hidden;top=0;left=0;bottom=0;right=0;strokeColor=#666666;align=left;fontStyle=1;fontSize=14;fillColor=#0288D1;fontColor=#FFFFFF;" parent="ibFiL1Bw5MCaEzBGAbg2-190" vertex="1">
          <mxGeometry x="71" width="118" height="40" as="geometry" />
        </mxCell>
        <mxCell id="ibFiL1Bw5MCaEzBGAbg2-193" value="Step" style="shape=partialRectangle;html=1;whiteSpace=wrap;connectable=0;overflow=hidden;top=0;left=0;bottom=0;right=0;strokeColor=#666666;fontStyle=1;fontSize=14;fillColor=#0288D1;fontColor=#FFFFFF;" parent="ibFiL1Bw5MCaEzBGAbg2-190" vertex="1">
          <mxGeometry x="189" width="124" height="40" as="geometry" />
        </mxCell>
        <mxCell id="ibFiL1Bw5MCaEzBGAbg2-194" value="Since" style="shape=partialRectangle;html=1;whiteSpace=wrap;connectable=0;overflow=hidden;top=0;left=0;bottom=0;right=0;strokeColor=#666666;fontStyle=1;fontSize=14;fillColor=#0288D1;fontColor=#FFFFFF;" parent="ibFiL1Bw5MCaEzBGAbg2-190" vertex="1">
          <mxGeometry x="313" width="248" height="40" as="geometry" />
        </mxCell>
        <mxCell id="ibFiL1Bw5MCaEzBGAbg2-195" value="" style="shape=partialRectangle;html=1;whiteSpace=wrap;collapsible=0;dropTarget=0;pointerEvents=0;fillColor=none;top=0;left=0;bottom=0;right=0;points=[[0,0.5],[1,0.5]];portConstraint=eastwest;fontColor=#B3B3B3;" parent="ibFiL1Bw5MCaEzBGAbg2-189" vertex="1">
          <mxGeometry y="40" width="561" height="40" as="geometry" />
        </mxCell>
        <mxCell id="ibFiL1Bw5MCaEzBGAbg2-196" style="shape=partialRectangle;html=1;whiteSpace=wrap;connectable=0;overflow=hidden;fillColor=none;top=0;left=0;bottom=0;right=0;align=left;fontColor=#B3B3B3;" parent="ibFiL1Bw5MCaEzBGAbg2-195" vertex="1">
          <mxGeometry width="71" height="40" as="geometry" />
        </mxCell>
        <mxCell id="ibFiL1Bw5MCaEzBGAbg2-197" value="Key West System" style="shape=partialRectangle;html=1;whiteSpace=wrap;connectable=0;overflow=hidden;fillColor=none;top=0;left=0;bottom=0;right=0;align=left;fontColor=#B3B3B3;" parent="ibFiL1Bw5MCaEzBGAbg2-195" vertex="1">
          <mxGeometry x="71" width="118" height="40" as="geometry" />
        </mxCell>
        <mxCell id="ibFiL1Bw5MCaEzBGAbg2-198" value="Step 3" style="shape=partialRectangle;html=1;whiteSpace=wrap;connectable=0;overflow=hidden;fillColor=none;top=0;left=0;bottom=0;right=0;fontColor=#B3B3B3;" parent="ibFiL1Bw5MCaEzBGAbg2-195" vertex="1">
          <mxGeometry x="189" width="124" height="40" as="geometry" />
        </mxCell>
        <mxCell id="ibFiL1Bw5MCaEzBGAbg2-199" value="January 16, 2021" style="shape=partialRectangle;html=1;whiteSpace=wrap;connectable=0;overflow=hidden;fillColor=none;top=0;left=0;bottom=0;right=0;fontColor=#B3B3B3;" parent="ibFiL1Bw5MCaEzBGAbg2-195" vertex="1">
          <mxGeometry x="313" width="248" height="40" as="geometry" />
        </mxCell>
        <mxCell id="ibFiL1Bw5MCaEzBGAbg2-200" value="" style="shape=partialRectangle;html=1;whiteSpace=wrap;collapsible=0;dropTarget=0;pointerEvents=0;fillColor=none;top=0;left=0;bottom=0;right=0;points=[[0,0.5],[1,0.5]];portConstraint=eastwest;fontColor=#B3B3B3;" parent="ibFiL1Bw5MCaEzBGAbg2-189" vertex="1">
          <mxGeometry y="80" width="561" height="40" as="geometry" />
        </mxCell>
        <mxCell id="ibFiL1Bw5MCaEzBGAbg2-201" style="shape=partialRectangle;html=1;whiteSpace=wrap;connectable=0;overflow=hidden;fillColor=none;top=0;left=0;bottom=0;right=0;align=left;fontColor=#B3B3B3;" parent="ibFiL1Bw5MCaEzBGAbg2-200" vertex="1">
          <mxGeometry width="71" height="40" as="geometry" />
        </mxCell>
        <mxCell id="ibFiL1Bw5MCaEzBGAbg2-202" value="Jamaica System" style="shape=partialRectangle;html=1;whiteSpace=wrap;connectable=0;overflow=hidden;fillColor=none;top=0;left=0;bottom=0;right=0;align=left;fontColor=#B3B3B3;" parent="ibFiL1Bw5MCaEzBGAbg2-200" vertex="1">
          <mxGeometry x="71" width="118" height="40" as="geometry" />
        </mxCell>
        <mxCell id="ibFiL1Bw5MCaEzBGAbg2-203" value="Step 3" style="shape=partialRectangle;html=1;whiteSpace=wrap;connectable=0;overflow=hidden;fillColor=none;top=0;left=0;bottom=0;right=0;fontColor=#B3B3B3;" parent="ibFiL1Bw5MCaEzBGAbg2-200" vertex="1">
          <mxGeometry x="189" width="124" height="40" as="geometry" />
        </mxCell>
        <mxCell id="ibFiL1Bw5MCaEzBGAbg2-204" value="February 2, 2021" style="shape=partialRectangle;html=1;whiteSpace=wrap;connectable=0;overflow=hidden;fillColor=none;top=0;left=0;bottom=0;right=0;fontColor=#B3B3B3;" parent="ibFiL1Bw5MCaEzBGAbg2-200" vertex="1">
          <mxGeometry x="313" width="248" height="40" as="geometry" />
        </mxCell>
        <mxCell id="ibFiL1Bw5MCaEzBGAbg2-205" value="" style="shape=partialRectangle;html=1;whiteSpace=wrap;collapsible=0;dropTarget=0;pointerEvents=0;fillColor=none;top=0;left=0;bottom=0;right=0;points=[[0,0.5],[1,0.5]];portConstraint=eastwest;fontColor=#B3B3B3;" parent="ibFiL1Bw5MCaEzBGAbg2-189" vertex="1">
          <mxGeometry y="120" width="561" height="40" as="geometry" />
        </mxCell>
        <mxCell id="ibFiL1Bw5MCaEzBGAbg2-206" style="shape=partialRectangle;html=1;whiteSpace=wrap;connectable=0;overflow=hidden;fillColor=none;top=0;left=0;bottom=0;right=0;align=left;fontColor=#B3B3B3;" parent="ibFiL1Bw5MCaEzBGAbg2-205" vertex="1">
          <mxGeometry width="71" height="40" as="geometry" />
        </mxCell>
        <mxCell id="ibFiL1Bw5MCaEzBGAbg2-207" value="Hawaii System" style="shape=partialRectangle;html=1;whiteSpace=wrap;connectable=0;overflow=hidden;fillColor=none;top=0;left=0;bottom=0;right=0;align=left;fontColor=#B3B3B3;" parent="ibFiL1Bw5MCaEzBGAbg2-205" vertex="1">
          <mxGeometry x="71" width="118" height="40" as="geometry" />
        </mxCell>
        <mxCell id="ibFiL1Bw5MCaEzBGAbg2-208" value="Step 3" style="shape=partialRectangle;html=1;whiteSpace=wrap;connectable=0;overflow=hidden;fillColor=none;top=0;left=0;bottom=0;right=0;fontColor=#B3B3B3;" parent="ibFiL1Bw5MCaEzBGAbg2-205" vertex="1">
          <mxGeometry x="189" width="124" height="40" as="geometry" />
        </mxCell>
        <mxCell id="ibFiL1Bw5MCaEzBGAbg2-209" value="December 23, 2020" style="shape=partialRectangle;html=1;whiteSpace=wrap;connectable=0;overflow=hidden;fillColor=none;top=0;left=0;bottom=0;right=0;fontColor=#B3B3B3;" parent="ibFiL1Bw5MCaEzBGAbg2-205" vertex="1">
          <mxGeometry x="313" width="248" height="40" as="geometry" />
        </mxCell>
        <mxCell id="ibFiL1Bw5MCaEzBGAbg2-210" value="" style="pointerEvents=1;shadow=0;dashed=0;html=1;strokeColor=none;labelPosition=center;verticalLabelPosition=bottom;verticalAlign=top;align=center;outlineConnect=0;shape=mxgraph.veeam2.critical;fontSize=14;fontColor=#FFFFFF;fillColor=#FF8000;" parent="ibFiL1Bw5MCaEzBGAbg2-182" vertex="1">
          <mxGeometry x="28" y="218" width="21" height="21" as="geometry" />
        </mxCell>
        <mxCell id="ibFiL1Bw5MCaEzBGAbg2-211" value="" style="shape=rect;strokeColor=#eeeeee;shadow=1;fillColor=#FFFFFF;" parent="ibFiL1Bw5MCaEzBGAbg2-1" vertex="1">
          <mxGeometry x="647" y="1313" width="582" height="413" as="geometry" />
        </mxCell>
        <mxCell id="ibFiL1Bw5MCaEzBGAbg2-212" value="" style="shape=rect;strokeColor=#eeeeee;fillColor=#ffffff;resizeWidth=1;" parent="ibFiL1Bw5MCaEzBGAbg2-211" vertex="1">
          <mxGeometry width="577" height="70" relative="1" as="geometry" />
        </mxCell>
        <mxCell id="ibFiL1Bw5MCaEzBGAbg2-213" value="" style="shape=image;html=1;verticalAlign=top;verticalLabelPosition=bottom;labelBackgroundColor=#ffffff;imageAspect=0;aspect=fixed;image=https://cdn2.iconfinder.com/data/icons/project-management-8/500/Approval-2-128.png;fontFamily=Helvetica;fontSize=12;fontColor=#000000;align=center;fillColor=#999999;" parent="ibFiL1Bw5MCaEzBGAbg2-212" vertex="1">
          <mxGeometry width="46" height="46" relative="1" as="geometry">
            <mxPoint x="15" y="15" as="offset" />
          </mxGeometry>
        </mxCell>
        <mxCell id="ibFiL1Bw5MCaEzBGAbg2-214" value="Systems - Pending Approval in My Org" style="text;fontSize=18;fontColor=#0288D1;fontStyle=1" parent="ibFiL1Bw5MCaEzBGAbg2-212" vertex="1">
          <mxGeometry width="340" height="20" relative="1" as="geometry">
            <mxPoint x="65" y="22" as="offset" />
          </mxGeometry>
        </mxCell>
        <mxCell id="ibFiL1Bw5MCaEzBGAbg2-215" value="" style="shape=rect;strokeColor=#eeeeee;fillColor=#ffffff;;whiteSpace=wrap;align=left;spacingLeft=16;fontColor=#666666;verticalAlign=top;spacingTop=10;fontSize=13;spacingRight=16;" parent="ibFiL1Bw5MCaEzBGAbg2-211" vertex="1">
          <mxGeometry y="273.14814814814815" width="561" height="139.85185185185185" as="geometry" />
        </mxCell>
        <mxCell id="ibFiL1Bw5MCaEzBGAbg2-216" value="" style="shape=rect;strokeColor=#eeeeee;fillColor=#ffffff;;whiteSpace=wrap;align=left;spacingLeft=14;fontColor=#BDBDBD;resizeWidth=1;" parent="ibFiL1Bw5MCaEzBGAbg2-211" vertex="1">
          <mxGeometry y="1" width="561" height="48" relative="1" as="geometry">
            <mxPoint y="-48" as="offset" />
          </mxGeometry>
        </mxCell>
        <mxCell id="ibFiL1Bw5MCaEzBGAbg2-217" value="OPEN" style="shape=rect;strokeColor=none;fillColor=#0288D1;fontColor=#FFFFFF;fontSize=13;fontStyle=1;" parent="ibFiL1Bw5MCaEzBGAbg2-216" vertex="1">
          <mxGeometry x="1" y="1" width="70" height="36" relative="1" as="geometry">
            <mxPoint x="-75" y="-42" as="offset" />
          </mxGeometry>
        </mxCell>
        <mxCell id="ibFiL1Bw5MCaEzBGAbg2-218" value="" style="shape=table;html=1;whiteSpace=wrap;startSize=0;container=1;collapsible=0;childLayout=tableLayout;shadow=0;strokeColor=none;fontColor=#0288D1;" parent="ibFiL1Bw5MCaEzBGAbg2-211" vertex="1">
          <mxGeometry x="11" y="92" width="563.6111111111109" height="160" as="geometry" />
        </mxCell>
        <mxCell id="ibFiL1Bw5MCaEzBGAbg2-219" value="" style="shape=partialRectangle;html=1;whiteSpace=wrap;collapsible=0;dropTarget=0;pointerEvents=0;fillColor=none;top=0;left=0;bottom=0;right=0;points=[[0,0.5],[1,0.5]];portConstraint=eastwest;" parent="ibFiL1Bw5MCaEzBGAbg2-218" vertex="1">
          <mxGeometry width="563.6111111111109" height="40" as="geometry" />
        </mxCell>
        <mxCell id="ibFiL1Bw5MCaEzBGAbg2-220" value="Priority" style="shape=partialRectangle;html=1;whiteSpace=wrap;connectable=0;overflow=hidden;top=0;left=0;bottom=0;right=0;strokeColor=#666666;align=left;fontStyle=1;fontSize=14;fillColor=#0288D1;fontColor=#FFFFFF;" parent="ibFiL1Bw5MCaEzBGAbg2-219" vertex="1">
          <mxGeometry width="70" height="40" as="geometry" />
        </mxCell>
        <mxCell id="ibFiL1Bw5MCaEzBGAbg2-221" value="System" style="shape=partialRectangle;html=1;whiteSpace=wrap;connectable=0;overflow=hidden;top=0;left=0;bottom=0;right=0;strokeColor=#666666;align=left;fontStyle=1;fontSize=14;fillColor=#0288D1;fontColor=#FFFFFF;" parent="ibFiL1Bw5MCaEzBGAbg2-219" vertex="1">
          <mxGeometry x="70" width="224" height="40" as="geometry" />
        </mxCell>
        <mxCell id="ibFiL1Bw5MCaEzBGAbg2-222" value="Approver" style="shape=partialRectangle;html=1;whiteSpace=wrap;connectable=0;overflow=hidden;top=0;left=0;bottom=0;right=0;strokeColor=#666666;fontStyle=1;fontSize=14;fillColor=#0288D1;fontColor=#FFFFFF;" parent="ibFiL1Bw5MCaEzBGAbg2-219" vertex="1">
          <mxGeometry x="294" width="132" height="40" as="geometry" />
        </mxCell>
        <mxCell id="ibFiL1Bw5MCaEzBGAbg2-223" value="Since" style="shape=partialRectangle;html=1;whiteSpace=wrap;connectable=0;overflow=hidden;top=0;left=0;bottom=0;right=0;strokeColor=#666666;fontStyle=1;fontSize=14;fillColor=#0288D1;fontColor=#FFFFFF;" parent="ibFiL1Bw5MCaEzBGAbg2-219" vertex="1">
          <mxGeometry x="426" width="138" height="40" as="geometry" />
        </mxCell>
        <mxCell id="ibFiL1Bw5MCaEzBGAbg2-224" value="" style="shape=partialRectangle;html=1;whiteSpace=wrap;collapsible=0;dropTarget=0;pointerEvents=0;fillColor=none;top=0;left=0;bottom=0;right=0;points=[[0,0.5],[1,0.5]];portConstraint=eastwest;fontColor=#B3B3B3;" parent="ibFiL1Bw5MCaEzBGAbg2-218" vertex="1">
          <mxGeometry y="40" width="563.6111111111109" height="40" as="geometry" />
        </mxCell>
        <mxCell id="ibFiL1Bw5MCaEzBGAbg2-225" style="shape=partialRectangle;html=1;whiteSpace=wrap;connectable=0;overflow=hidden;fillColor=none;top=0;left=0;bottom=0;right=0;align=left;fontColor=#B3B3B3;" parent="ibFiL1Bw5MCaEzBGAbg2-224" vertex="1">
          <mxGeometry width="70" height="40" as="geometry" />
        </mxCell>
        <mxCell id="ibFiL1Bw5MCaEzBGAbg2-226" value="Strawberry System" style="shape=partialRectangle;html=1;whiteSpace=wrap;connectable=0;overflow=hidden;fillColor=none;top=0;left=0;bottom=0;right=0;align=left;fontColor=#B3B3B3;" parent="ibFiL1Bw5MCaEzBGAbg2-224" vertex="1">
          <mxGeometry x="70" width="224" height="40" as="geometry" />
        </mxCell>
        <mxCell id="ibFiL1Bw5MCaEzBGAbg2-227" value="Lisa G." style="shape=partialRectangle;html=1;whiteSpace=wrap;connectable=0;overflow=hidden;fillColor=none;top=0;left=0;bottom=0;right=0;fontColor=#B3B3B3;" parent="ibFiL1Bw5MCaEzBGAbg2-224" vertex="1">
          <mxGeometry x="294" width="132" height="40" as="geometry" />
        </mxCell>
        <mxCell id="ibFiL1Bw5MCaEzBGAbg2-228" value="January 10, 2021" style="shape=partialRectangle;html=1;whiteSpace=wrap;connectable=0;overflow=hidden;fillColor=none;top=0;left=0;bottom=0;right=0;fontColor=#B3B3B3;" parent="ibFiL1Bw5MCaEzBGAbg2-224" vertex="1">
          <mxGeometry x="426" width="138" height="40" as="geometry" />
        </mxCell>
        <mxCell id="ibFiL1Bw5MCaEzBGAbg2-229" value="" style="shape=partialRectangle;html=1;whiteSpace=wrap;collapsible=0;dropTarget=0;pointerEvents=0;fillColor=none;top=0;left=0;bottom=0;right=0;points=[[0,0.5],[1,0.5]];portConstraint=eastwest;fontColor=#B3B3B3;" parent="ibFiL1Bw5MCaEzBGAbg2-218" vertex="1">
          <mxGeometry y="80" width="563.6111111111109" height="40" as="geometry" />
        </mxCell>
        <mxCell id="ibFiL1Bw5MCaEzBGAbg2-230" style="shape=partialRectangle;html=1;whiteSpace=wrap;connectable=0;overflow=hidden;fillColor=none;top=0;left=0;bottom=0;right=0;align=left;fontColor=#B3B3B3;" parent="ibFiL1Bw5MCaEzBGAbg2-229" vertex="1">
          <mxGeometry width="70" height="40" as="geometry" />
        </mxCell>
        <mxCell id="ibFiL1Bw5MCaEzBGAbg2-231" value="Candle System" style="shape=partialRectangle;html=1;whiteSpace=wrap;connectable=0;overflow=hidden;fillColor=none;top=0;left=0;bottom=0;right=0;align=left;fontColor=#B3B3B3;" parent="ibFiL1Bw5MCaEzBGAbg2-229" vertex="1">
          <mxGeometry x="70" width="224" height="40" as="geometry" />
        </mxCell>
        <mxCell id="ibFiL1Bw5MCaEzBGAbg2-232" value="Crystel K." style="shape=partialRectangle;html=1;whiteSpace=wrap;connectable=0;overflow=hidden;fillColor=none;top=0;left=0;bottom=0;right=0;fontColor=#B3B3B3;" parent="ibFiL1Bw5MCaEzBGAbg2-229" vertex="1">
          <mxGeometry x="294" width="132" height="40" as="geometry" />
        </mxCell>
        <mxCell id="ibFiL1Bw5MCaEzBGAbg2-233" value="February 9, 2021" style="shape=partialRectangle;html=1;whiteSpace=wrap;connectable=0;overflow=hidden;fillColor=none;top=0;left=0;bottom=0;right=0;fontColor=#B3B3B3;" parent="ibFiL1Bw5MCaEzBGAbg2-229" vertex="1">
          <mxGeometry x="426" width="138" height="40" as="geometry" />
        </mxCell>
        <mxCell id="ibFiL1Bw5MCaEzBGAbg2-234" value="" style="shape=partialRectangle;html=1;whiteSpace=wrap;collapsible=0;dropTarget=0;pointerEvents=0;fillColor=none;top=0;left=0;bottom=0;right=0;points=[[0,0.5],[1,0.5]];portConstraint=eastwest;fontColor=#B3B3B3;" parent="ibFiL1Bw5MCaEzBGAbg2-218" vertex="1">
          <mxGeometry y="120" width="563.6111111111109" height="40" as="geometry" />
        </mxCell>
        <mxCell id="ibFiL1Bw5MCaEzBGAbg2-235" style="shape=partialRectangle;html=1;whiteSpace=wrap;connectable=0;overflow=hidden;fillColor=none;top=0;left=0;bottom=0;right=0;align=left;fontColor=#B3B3B3;" parent="ibFiL1Bw5MCaEzBGAbg2-234" vertex="1">
          <mxGeometry width="70" height="40" as="geometry" />
        </mxCell>
        <mxCell id="ibFiL1Bw5MCaEzBGAbg2-236" value="Bookshelf System" style="shape=partialRectangle;html=1;whiteSpace=wrap;connectable=0;overflow=hidden;fillColor=none;top=0;left=0;bottom=0;right=0;align=left;fontColor=#B3B3B3;" parent="ibFiL1Bw5MCaEzBGAbg2-234" vertex="1">
          <mxGeometry x="70" width="224" height="40" as="geometry" />
        </mxCell>
        <mxCell id="ibFiL1Bw5MCaEzBGAbg2-237" value="Chris O." style="shape=partialRectangle;html=1;whiteSpace=wrap;connectable=0;overflow=hidden;fillColor=none;top=0;left=0;bottom=0;right=0;fontColor=#B3B3B3;" parent="ibFiL1Bw5MCaEzBGAbg2-234" vertex="1">
          <mxGeometry x="294" width="132" height="40" as="geometry" />
        </mxCell>
        <mxCell id="ibFiL1Bw5MCaEzBGAbg2-238" value="December 1, 2020" style="shape=partialRectangle;html=1;whiteSpace=wrap;connectable=0;overflow=hidden;fillColor=none;top=0;left=0;bottom=0;right=0;fontColor=#B3B3B3;" parent="ibFiL1Bw5MCaEzBGAbg2-234" vertex="1">
          <mxGeometry x="426" width="138" height="40" as="geometry" />
        </mxCell>
        <mxCell id="ibFiL1Bw5MCaEzBGAbg2-239" value="" style="pointerEvents=1;shadow=0;dashed=0;html=1;strokeColor=none;labelPosition=center;verticalLabelPosition=bottom;verticalAlign=top;align=center;outlineConnect=0;shape=mxgraph.veeam2.critical;fontSize=14;fontColor=#FFFFFF;fillColor=#FF0000;" parent="ibFiL1Bw5MCaEzBGAbg2-211" vertex="1">
          <mxGeometry x="36" y="142" width="21" height="21" as="geometry" />
        </mxCell>
        <mxCell id="ibFiL1Bw5MCaEzBGAbg2-240" value="DMO Manager View" style="text;html=1;strokeColor=none;fillColor=none;align=center;verticalAlign=middle;whiteSpace=wrap;rounded=0;shadow=0;fontSize=18;fontStyle=1" parent="ibFiL1Bw5MCaEzBGAbg2-1" vertex="1">
          <mxGeometry x="646" y="1130" width="184" height="20" as="geometry" />
        </mxCell>
        <mxCell id="ibFiL1Bw5MCaEzBGAbg2-241" value="" style="shape=rect;strokeColor=#eeeeee;shadow=1;fillColor=#FFFFFF;align=left;" parent="ibFiL1Bw5MCaEzBGAbg2-1" vertex="1">
          <mxGeometry x="644" y="1757" width="585" height="384" as="geometry" />
        </mxCell>
        <mxCell id="ibFiL1Bw5MCaEzBGAbg2-242" value="" style="shape=rect;strokeColor=#eeeeee;fillColor=#ffffff;resizeWidth=1;" parent="ibFiL1Bw5MCaEzBGAbg2-241" vertex="1">
          <mxGeometry width="568.7217391304347" height="70" relative="1" as="geometry">
            <mxPoint x="1528.68" y="109" as="offset" />
          </mxGeometry>
        </mxCell>
        <mxCell id="ibFiL1Bw5MCaEzBGAbg2-243" value="" style="shape=image;html=1;verticalAlign=top;verticalLabelPosition=bottom;labelBackgroundColor=#ffffff;imageAspect=0;aspect=fixed;image=https://cdn3.iconfinder.com/data/icons/solid-locations-icon-set/64/Working_Tools_2-128.png;fontFamily=Helvetica;fontSize=12;fontColor=#000000;align=center;fillColor=#999999;" parent="ibFiL1Bw5MCaEzBGAbg2-242" vertex="1">
          <mxGeometry width="40" height="40" relative="1" as="geometry">
            <mxPoint x="15" y="15" as="offset" />
          </mxGeometry>
        </mxCell>
        <mxCell id="ibFiL1Bw5MCaEzBGAbg2-244" value="My Systems - In Progress" style="text;fontSize=18;fontColor=#0288D1;fontStyle=1" parent="ibFiL1Bw5MCaEzBGAbg2-242" vertex="1">
          <mxGeometry width="235" height="20" relative="1" as="geometry">
            <mxPoint x="65" y="22" as="offset" />
          </mxGeometry>
        </mxCell>
        <mxCell id="ibFiL1Bw5MCaEzBGAbg2-245" value="" style="shape=rect;strokeColor=#eeeeee;fillColor=#ffffff;;whiteSpace=wrap;align=left;spacingLeft=16;fontColor=#666666;verticalAlign=top;spacingTop=10;fontSize=13;spacingRight=16;" parent="ibFiL1Bw5MCaEzBGAbg2-241" vertex="1">
          <mxGeometry x="1506.001739130435" y="362.968253968254" width="568.7217391304347" height="130.03174603174602" as="geometry" />
        </mxCell>
        <mxCell id="ibFiL1Bw5MCaEzBGAbg2-246" value="" style="shape=rect;strokeColor=#eeeeee;fillColor=#ffffff;;whiteSpace=wrap;align=left;spacingLeft=14;fontColor=#BDBDBD;resizeWidth=1;" parent="ibFiL1Bw5MCaEzBGAbg2-241" vertex="1">
          <mxGeometry y="1" width="568.7217391304347" height="48" relative="1" as="geometry">
            <mxPoint x="1528.68" y="61" as="offset" />
          </mxGeometry>
        </mxCell>
        <mxCell id="ibFiL1Bw5MCaEzBGAbg2-247" value="OPEN" style="shape=rect;strokeColor=none;fillColor=#0288D1;fontColor=#FFFFFF;fontStyle=1;fontSize=13;" parent="ibFiL1Bw5MCaEzBGAbg2-246" vertex="1">
          <mxGeometry x="1" y="1" width="70" height="36" relative="1" as="geometry">
            <mxPoint x="-75" y="-42" as="offset" />
          </mxGeometry>
        </mxCell>
        <mxCell id="ibFiL1Bw5MCaEzBGAbg2-248" value="" style="shape=table;html=1;whiteSpace=wrap;startSize=0;container=1;collapsible=0;childLayout=tableLayout;shadow=0;strokeColor=none;fontColor=#0288D1;" parent="ibFiL1Bw5MCaEzBGAbg2-241" vertex="1">
          <mxGeometry x="1521.2626086956523" y="196" width="556.5130434782608" height="160" as="geometry" />
        </mxCell>
        <mxCell id="ibFiL1Bw5MCaEzBGAbg2-249" value="" style="shape=partialRectangle;html=1;whiteSpace=wrap;collapsible=0;dropTarget=0;pointerEvents=0;fillColor=none;top=0;left=0;bottom=0;right=0;points=[[0,0.5],[1,0.5]];portConstraint=eastwest;" parent="ibFiL1Bw5MCaEzBGAbg2-248" vertex="1">
          <mxGeometry width="556.5130434782608" height="40" as="geometry" />
        </mxCell>
        <mxCell id="ibFiL1Bw5MCaEzBGAbg2-250" value="System" style="shape=partialRectangle;html=1;whiteSpace=wrap;connectable=0;overflow=hidden;top=0;left=0;bottom=0;right=0;strokeColor=#666666;align=left;fontStyle=1;fontSize=14;fillColor=#0288D1;fontColor=#FFFFFF;" parent="ibFiL1Bw5MCaEzBGAbg2-249" vertex="1">
          <mxGeometry width="143" height="40" as="geometry" />
        </mxCell>
        <mxCell id="ibFiL1Bw5MCaEzBGAbg2-251" value="Step" style="shape=partialRectangle;html=1;whiteSpace=wrap;connectable=0;overflow=hidden;top=0;left=0;bottom=0;right=0;strokeColor=#666666;fontStyle=1;fontSize=14;fillColor=#0288D1;fontColor=#FFFFFF;" parent="ibFiL1Bw5MCaEzBGAbg2-249" vertex="1">
          <mxGeometry x="143" width="184" height="40" as="geometry" />
        </mxCell>
        <mxCell id="ibFiL1Bw5MCaEzBGAbg2-252" value="Since" style="shape=partialRectangle;html=1;whiteSpace=wrap;connectable=0;overflow=hidden;top=0;left=0;bottom=0;right=0;strokeColor=#666666;fontStyle=1;fontSize=14;fillColor=#0288D1;fontColor=#FFFFFF;" parent="ibFiL1Bw5MCaEzBGAbg2-249" vertex="1">
          <mxGeometry x="327" width="230" height="40" as="geometry" />
        </mxCell>
        <mxCell id="ibFiL1Bw5MCaEzBGAbg2-253" value="" style="shape=partialRectangle;html=1;whiteSpace=wrap;collapsible=0;dropTarget=0;pointerEvents=0;fillColor=none;top=0;left=0;bottom=0;right=0;points=[[0,0.5],[1,0.5]];portConstraint=eastwest;fontColor=#B3B3B3;" parent="ibFiL1Bw5MCaEzBGAbg2-248" vertex="1">
          <mxGeometry y="40" width="556.5130434782608" height="40" as="geometry" />
        </mxCell>
        <mxCell id="ibFiL1Bw5MCaEzBGAbg2-254" value="Peony System" style="shape=partialRectangle;html=1;whiteSpace=wrap;connectable=0;overflow=hidden;fillColor=none;top=0;left=0;bottom=0;right=0;align=left;fontColor=#B3B3B3;" parent="ibFiL1Bw5MCaEzBGAbg2-253" vertex="1">
          <mxGeometry width="143" height="40" as="geometry" />
        </mxCell>
        <mxCell id="ibFiL1Bw5MCaEzBGAbg2-255" value="Step 3" style="shape=partialRectangle;html=1;whiteSpace=wrap;connectable=0;overflow=hidden;fillColor=none;top=0;left=0;bottom=0;right=0;fontColor=#B3B3B3;" parent="ibFiL1Bw5MCaEzBGAbg2-253" vertex="1">
          <mxGeometry x="143" width="184" height="40" as="geometry" />
        </mxCell>
        <mxCell id="ibFiL1Bw5MCaEzBGAbg2-256" value="February 8, 2021" style="shape=partialRectangle;html=1;whiteSpace=wrap;connectable=0;overflow=hidden;fillColor=none;top=0;left=0;bottom=0;right=0;fontColor=#B3B3B3;" parent="ibFiL1Bw5MCaEzBGAbg2-253" vertex="1">
          <mxGeometry x="327" width="230" height="40" as="geometry" />
        </mxCell>
        <mxCell id="ibFiL1Bw5MCaEzBGAbg2-257" value="" style="shape=partialRectangle;html=1;whiteSpace=wrap;collapsible=0;dropTarget=0;pointerEvents=0;fillColor=none;top=0;left=0;bottom=0;right=0;points=[[0,0.5],[1,0.5]];portConstraint=eastwest;fontColor=#B3B3B3;" parent="ibFiL1Bw5MCaEzBGAbg2-248" vertex="1">
          <mxGeometry y="80" width="556.5130434782608" height="40" as="geometry" />
        </mxCell>
        <mxCell id="ibFiL1Bw5MCaEzBGAbg2-258" value="Tulips System" style="shape=partialRectangle;html=1;whiteSpace=wrap;connectable=0;overflow=hidden;fillColor=none;top=0;left=0;bottom=0;right=0;align=left;fontColor=#B3B3B3;" parent="ibFiL1Bw5MCaEzBGAbg2-257" vertex="1">
          <mxGeometry width="143" height="40" as="geometry" />
        </mxCell>
        <mxCell id="ibFiL1Bw5MCaEzBGAbg2-259" value="Step 3" style="shape=partialRectangle;html=1;whiteSpace=wrap;connectable=0;overflow=hidden;fillColor=none;top=0;left=0;bottom=0;right=0;fontColor=#B3B3B3;" parent="ibFiL1Bw5MCaEzBGAbg2-257" vertex="1">
          <mxGeometry x="143" width="184" height="40" as="geometry" />
        </mxCell>
        <mxCell id="ibFiL1Bw5MCaEzBGAbg2-260" value="February 9, 2021" style="shape=partialRectangle;html=1;whiteSpace=wrap;connectable=0;overflow=hidden;fillColor=none;top=0;left=0;bottom=0;right=0;fontColor=#B3B3B3;" parent="ibFiL1Bw5MCaEzBGAbg2-257" vertex="1">
          <mxGeometry x="327" width="230" height="40" as="geometry" />
        </mxCell>
        <mxCell id="ibFiL1Bw5MCaEzBGAbg2-261" value="" style="shape=partialRectangle;html=1;whiteSpace=wrap;collapsible=0;dropTarget=0;pointerEvents=0;fillColor=none;top=0;left=0;bottom=0;right=0;points=[[0,0.5],[1,0.5]];portConstraint=eastwest;fontColor=#B3B3B3;" parent="ibFiL1Bw5MCaEzBGAbg2-248" vertex="1">
          <mxGeometry y="120" width="556.5130434782608" height="40" as="geometry" />
        </mxCell>
        <mxCell id="ibFiL1Bw5MCaEzBGAbg2-262" value="Roses System" style="shape=partialRectangle;html=1;whiteSpace=wrap;connectable=0;overflow=hidden;fillColor=none;top=0;left=0;bottom=0;right=0;align=left;fontColor=#B3B3B3;" parent="ibFiL1Bw5MCaEzBGAbg2-261" vertex="1">
          <mxGeometry width="143" height="40" as="geometry" />
        </mxCell>
        <mxCell id="ibFiL1Bw5MCaEzBGAbg2-263" value="Step 1" style="shape=partialRectangle;html=1;whiteSpace=wrap;connectable=0;overflow=hidden;fillColor=none;top=0;left=0;bottom=0;right=0;fontColor=#B3B3B3;" parent="ibFiL1Bw5MCaEzBGAbg2-261" vertex="1">
          <mxGeometry x="143" width="184" height="40" as="geometry" />
        </mxCell>
        <mxCell id="ibFiL1Bw5MCaEzBGAbg2-264" value="February 11, 2021" style="shape=partialRectangle;html=1;whiteSpace=wrap;connectable=0;overflow=hidden;fillColor=none;top=0;left=0;bottom=0;right=0;fontColor=#B3B3B3;" parent="ibFiL1Bw5MCaEzBGAbg2-261" vertex="1">
          <mxGeometry x="327" width="230" height="40" as="geometry" />
        </mxCell>
        <mxCell id="ibFiL1Bw5MCaEzBGAbg2-265" value="" style="shape=rect;strokeColor=#eeeeee;fillColor=#ffffff;resizeWidth=1;" parent="ibFiL1Bw5MCaEzBGAbg2-241" vertex="1">
          <mxGeometry x="5" y="7" width="575" height="74" as="geometry" />
        </mxCell>
        <mxCell id="ibFiL1Bw5MCaEzBGAbg2-266" value="Systems - IMA by Schedule" style="text;fontSize=18;fontColor=#0288D1;fontStyle=1" parent="ibFiL1Bw5MCaEzBGAbg2-265" vertex="1">
          <mxGeometry width="235" height="20" relative="1" as="geometry">
            <mxPoint x="65" y="22" as="offset" />
          </mxGeometry>
        </mxCell>
        <mxCell id="ibFiL1Bw5MCaEzBGAbg2-267" value="" style="dashed=0;aspect=fixed;verticalLabelPosition=bottom;verticalAlign=top;align=center;shape=mxgraph.gmdl.calendar;strokeColor=none;fillColor=#737373;shadow=0;fontSize=18;fontColor=#7EA6E0;" parent="ibFiL1Bw5MCaEzBGAbg2-265" vertex="1">
          <mxGeometry x="19" y="19" width="36" height="36" as="geometry" />
        </mxCell>
        <mxCell id="ibFiL1Bw5MCaEzBGAbg2-268" value="FRCS 8A" style="verticalLabelPosition=bottom;verticalAlign=top;html=1;shape=mxgraph.infographic.shadedCube;isoAngle=15;fillColor=#10739E;strokeColor=none;fontStyle=1;fontColor=#10739E;fontSize=12;shadow=0;align=left;" parent="ibFiL1Bw5MCaEzBGAbg2-241" vertex="1">
          <mxGeometry x="127.86" y="151" width="40" height="135" as="geometry" />
        </mxCell>
        <mxCell id="ibFiL1Bw5MCaEzBGAbg2-269" value="GRS 1C" style="verticalLabelPosition=bottom;verticalAlign=top;html=1;shape=mxgraph.infographic.shadedCube;isoAngle=15;fillColor=#23445D;strokeColor=none;fontStyle=1;fontColor=#23445D;fontSize=12;shadow=0;align=left;" parent="ibFiL1Bw5MCaEzBGAbg2-241" vertex="1">
          <mxGeometry x="220.86" y="220" width="40" height="66" as="geometry" />
        </mxCell>
        <mxCell id="ibFiL1Bw5MCaEzBGAbg2-270" value="FRCS P1A" style="verticalLabelPosition=bottom;verticalAlign=top;html=1;shape=mxgraph.infographic.shadedCube;isoAngle=15;fillColor=#12AAB5;strokeColor=none;fontStyle=1;fontColor=#12AAB5;fontSize=12;shadow=0;align=left;" parent="ibFiL1Bw5MCaEzBGAbg2-241" vertex="1">
          <mxGeometry x="307.86" y="186" width="40" height="100" as="geometry" />
        </mxCell>
        <mxCell id="ibFiL1Bw5MCaEzBGAbg2-271" value="FRCS P17A" style="verticalLabelPosition=bottom;verticalAlign=top;html=1;shape=mxgraph.infographic.shadedCube;isoAngle=15;strokeColor=none;fontStyle=1;fontSize=12;shadow=0;align=left;fontColor=#7EA6E0;fillColor=#66B2FF;" parent="ibFiL1Bw5MCaEzBGAbg2-241" vertex="1">
          <mxGeometry x="390.86" y="193" width="40" height="94" as="geometry" />
        </mxCell>
        <mxCell id="ibFiL1Bw5MCaEzBGAbg2-272" value="" style="endArrow=none;html=1;fontSize=18;fontColor=#7EA6E0;exitX=0.177;exitY=0.789;exitDx=0;exitDy=0;exitPerimeter=0;strokeColor=#B3B3B3;strokeWidth=2;" parent="ibFiL1Bw5MCaEzBGAbg2-241" edge="1">
          <mxGeometry width="50" height="50" relative="1" as="geometry">
            <mxPoint x="97.40500000000007" y="328.97599999999966" as="sourcePoint" />
            <mxPoint x="97.14" y="123" as="targetPoint" />
          </mxGeometry>
        </mxCell>
        <mxCell id="ibFiL1Bw5MCaEzBGAbg2-273" value="" style="endArrow=none;html=1;fontSize=18;fontColor=#7EA6E0;strokeColor=#B3B3B3;strokeWidth=2;" parent="ibFiL1Bw5MCaEzBGAbg2-1" edge="1">
          <mxGeometry width="50" height="50" relative="1" as="geometry">
            <mxPoint x="741.8600000000006" y="2088.000000000001" as="sourcePoint" />
            <mxPoint x="1117.8600000000006" y="2088.000000000001" as="targetPoint" />
          </mxGeometry>
        </mxCell>
        <mxCell id="ibFiL1Bw5MCaEzBGAbg2-274" value="Systems" style="text;html=1;resizable=0;autosize=1;align=center;verticalAlign=middle;points=[];fillColor=none;strokeColor=none;rounded=0;shadow=0;fontSize=18;" parent="ibFiL1Bw5MCaEzBGAbg2-1" vertex="1">
          <mxGeometry x="1222" y="191" width="79" height="26" as="geometry" />
        </mxCell>
        <mxCell id="ibFiL1Bw5MCaEzBGAbg2-275" value="Metrics" style="text;html=1;resizable=0;autosize=1;align=center;verticalAlign=middle;points=[];fillColor=none;strokeColor=none;rounded=0;shadow=0;fontSize=18;" parent="ibFiL1Bw5MCaEzBGAbg2-1" vertex="1">
          <mxGeometry x="1341" y="191" width="68" height="26" as="geometry" />
        </mxCell>
        <mxCell id="ibFiL1Bw5MCaEzBGAbg2-276" value="Dashboard" style="text;html=1;resizable=0;autosize=1;align=center;verticalAlign=middle;points=[];fillColor=none;strokeColor=none;rounded=0;shadow=0;fontSize=18;fontStyle=1;" parent="ibFiL1Bw5MCaEzBGAbg2-1" vertex="1">
          <mxGeometry x="1077" y="191" width="104" height="26" as="geometry" />
        </mxCell>
        <mxCell id="ibFiL1Bw5MCaEzBGAbg2-277" value="Systems" style="text;html=1;resizable=0;autosize=1;align=center;verticalAlign=middle;points=[];fillColor=none;strokeColor=none;rounded=0;shadow=0;fontSize=18;" parent="ibFiL1Bw5MCaEzBGAbg2-1" vertex="1">
          <mxGeometry x="1185" y="1282" width="79" height="26" as="geometry" />
        </mxCell>
        <mxCell id="ibFiL1Bw5MCaEzBGAbg2-278" value="Metrics" style="text;html=1;resizable=0;autosize=1;align=center;verticalAlign=middle;points=[];fillColor=none;strokeColor=none;rounded=0;shadow=0;fontSize=18;" parent="ibFiL1Bw5MCaEzBGAbg2-1" vertex="1">
          <mxGeometry x="1297.5" y="1282" width="68" height="26" as="geometry" />
        </mxCell>
        <mxCell id="ibFiL1Bw5MCaEzBGAbg2-279" value="Dashboard" style="text;html=1;resizable=0;autosize=1;align=center;verticalAlign=middle;points=[];fillColor=none;strokeColor=none;rounded=0;shadow=0;fontSize=18;fontStyle=1;" parent="ibFiL1Bw5MCaEzBGAbg2-1" vertex="1">
          <mxGeometry x="1047.5" y="1282" width="104" height="26" as="geometry" />
        </mxCell>
        <mxCell id="ibFiL1Bw5MCaEzBGAbg2-280" value="" style="shape=rect;strokeColor=#eeeeee;shadow=1;fillColor=#FFFFFF;" parent="ibFiL1Bw5MCaEzBGAbg2-1" vertex="1">
          <mxGeometry x="2155" y="159" width="581" height="372" as="geometry" />
        </mxCell>
        <mxCell id="ibFiL1Bw5MCaEzBGAbg2-281" value="" style="shape=rect;strokeColor=#eeeeee;fillColor=#ffffff;resizeWidth=1;" parent="ibFiL1Bw5MCaEzBGAbg2-280" vertex="1">
          <mxGeometry width="560.0360824742269" height="70" relative="1" as="geometry" />
        </mxCell>
        <mxCell id="ibFiL1Bw5MCaEzBGAbg2-282" value="Actions - By Due Date (92)" style="text;fontSize=18;fontColor=#0288D1;fontStyle=1" parent="ibFiL1Bw5MCaEzBGAbg2-281" vertex="1">
          <mxGeometry width="235" height="20" relative="1" as="geometry">
            <mxPoint x="65" y="22" as="offset" />
          </mxGeometry>
        </mxCell>
        <mxCell id="ibFiL1Bw5MCaEzBGAbg2-283" value="" style="shape=image;html=1;verticalAlign=top;verticalLabelPosition=bottom;labelBackgroundColor=#ffffff;imageAspect=0;aspect=fixed;image=https://cdn4.iconfinder.com/data/icons/essential-app-2/16/calendar-book-date-monthly-128.png;fillColor=#000000;" parent="ibFiL1Bw5MCaEzBGAbg2-281" vertex="1">
          <mxGeometry x="14" y="18" width="40" height="40" as="geometry" />
        </mxCell>
        <mxCell id="ibFiL1Bw5MCaEzBGAbg2-284" value="" style="shape=rect;strokeColor=#eeeeee;fillColor=#ffffff;;whiteSpace=wrap;align=left;spacingLeft=16;fontColor=#666666;verticalAlign=top;spacingTop=10;fontSize=13;spacingRight=16;" parent="ibFiL1Bw5MCaEzBGAbg2-280" vertex="1">
          <mxGeometry y="246.03174603174622" width="560.0360824742269" height="125.96825396825416" as="geometry" />
        </mxCell>
        <mxCell id="ibFiL1Bw5MCaEzBGAbg2-285" value="" style="shape=rect;strokeColor=#eeeeee;fillColor=#ffffff;;whiteSpace=wrap;align=left;spacingLeft=14;fontColor=#BDBDBD;resizeWidth=1;" parent="ibFiL1Bw5MCaEzBGAbg2-280" vertex="1">
          <mxGeometry y="1" width="560.0360824742269" height="48" relative="1" as="geometry">
            <mxPoint y="-48" as="offset" />
          </mxGeometry>
        </mxCell>
        <mxCell id="ibFiL1Bw5MCaEzBGAbg2-286" value="OPEN" style="shape=rect;strokeColor=none;fillColor=#0288D1;fontColor=#FFFFFF;fontSize=13;fontStyle=1;" parent="ibFiL1Bw5MCaEzBGAbg2-285" vertex="1">
          <mxGeometry x="1" y="1" width="70" height="36" relative="1" as="geometry">
            <mxPoint x="-75" y="-42" as="offset" />
          </mxGeometry>
        </mxCell>
        <mxCell id="ibFiL1Bw5MCaEzBGAbg2-287" value="" style="shape=table;html=1;whiteSpace=wrap;startSize=0;container=1;collapsible=0;childLayout=tableLayout;shadow=0;strokeColor=none;fontColor=#0288D1;" parent="ibFiL1Bw5MCaEzBGAbg2-280" vertex="1">
          <mxGeometry x="10.981099656357388" y="82.86682808716708" width="562.6427071401296" height="216.7015886139491" as="geometry" />
        </mxCell>
        <mxCell id="ibFiL1Bw5MCaEzBGAbg2-288" value="" style="shape=partialRectangle;html=1;whiteSpace=wrap;collapsible=0;dropTarget=0;pointerEvents=0;fillColor=none;top=0;left=0;bottom=0;right=0;points=[[0,0.5],[1,0.5]];portConstraint=eastwest;" parent="ibFiL1Bw5MCaEzBGAbg2-287" vertex="1">
          <mxGeometry width="562.6427071401296" height="40" as="geometry" />
        </mxCell>
        <mxCell id="ibFiL1Bw5MCaEzBGAbg2-289" value="Status" style="shape=partialRectangle;html=1;whiteSpace=wrap;connectable=0;overflow=hidden;top=0;left=0;bottom=0;right=0;strokeColor=#666666;align=left;fontStyle=1;fontSize=14;fillColor=#0288D1;fontColor=#FFFFFF;" parent="ibFiL1Bw5MCaEzBGAbg2-288" vertex="1">
          <mxGeometry width="69" height="40" as="geometry" />
        </mxCell>
        <mxCell id="ibFiL1Bw5MCaEzBGAbg2-290" value="Due Date" style="shape=partialRectangle;html=1;whiteSpace=wrap;connectable=0;overflow=hidden;top=0;left=0;bottom=0;right=0;strokeColor=#666666;align=left;fontStyle=1;fontSize=14;fillColor=#0288D1;fontColor=#FFFFFF;" parent="ibFiL1Bw5MCaEzBGAbg2-288" vertex="1">
          <mxGeometry x="69" width="118" height="40" as="geometry" />
        </mxCell>
        <mxCell id="ibFiL1Bw5MCaEzBGAbg2-291" value="System" style="shape=partialRectangle;html=1;whiteSpace=wrap;connectable=0;overflow=hidden;top=0;left=0;bottom=0;right=0;strokeColor=#666666;fontStyle=1;fontSize=14;fillColor=#0288D1;fontColor=#FFFFFF;align=left;" parent="ibFiL1Bw5MCaEzBGAbg2-288" vertex="1">
          <mxGeometry x="187" width="238" height="40" as="geometry" />
        </mxCell>
        <mxCell id="ibFiL1Bw5MCaEzBGAbg2-292" value="Assignee" style="shape=partialRectangle;html=1;whiteSpace=wrap;connectable=0;overflow=hidden;top=0;left=0;bottom=0;right=0;strokeColor=#666666;fontStyle=1;fontSize=14;fillColor=#0288D1;fontColor=#FFFFFF;align=left;" parent="ibFiL1Bw5MCaEzBGAbg2-288" vertex="1">
          <mxGeometry x="425" width="138" height="40" as="geometry" />
        </mxCell>
        <mxCell id="ibFiL1Bw5MCaEzBGAbg2-293" value="" style="shape=partialRectangle;html=1;whiteSpace=wrap;collapsible=0;dropTarget=0;pointerEvents=0;fillColor=none;top=0;left=0;bottom=0;right=0;points=[[0,0.5],[1,0.5]];portConstraint=eastwest;fontColor=#B3B3B3;" parent="ibFiL1Bw5MCaEzBGAbg2-287" vertex="1">
          <mxGeometry y="40" width="562.6427071401296" height="39" as="geometry" />
        </mxCell>
        <mxCell id="ibFiL1Bw5MCaEzBGAbg2-294" style="shape=partialRectangle;html=1;whiteSpace=wrap;connectable=0;overflow=hidden;fillColor=none;top=0;left=0;bottom=0;right=0;align=left;fontColor=#B3B3B3;" parent="ibFiL1Bw5MCaEzBGAbg2-293" vertex="1">
          <mxGeometry width="69" height="39" as="geometry" />
        </mxCell>
        <mxCell id="ibFiL1Bw5MCaEzBGAbg2-295" value="January 10, 2021" style="shape=partialRectangle;html=1;whiteSpace=wrap;connectable=0;overflow=hidden;fillColor=none;top=0;left=0;bottom=0;right=0;align=left;fontColor=#B3B3B3;" parent="ibFiL1Bw5MCaEzBGAbg2-293" vertex="1">
          <mxGeometry x="69" width="118" height="39" as="geometry" />
        </mxCell>
        <mxCell id="ibFiL1Bw5MCaEzBGAbg2-296" value="Secret Squirrel Alliance" style="shape=partialRectangle;html=1;whiteSpace=wrap;connectable=0;overflow=hidden;fillColor=none;top=0;left=0;bottom=0;right=0;fontColor=#B3B3B3;align=left;" parent="ibFiL1Bw5MCaEzBGAbg2-293" vertex="1">
          <mxGeometry x="187" width="238" height="39" as="geometry" />
        </mxCell>
        <mxCell id="ibFiL1Bw5MCaEzBGAbg2-297" value="Lisa G." style="shape=partialRectangle;html=1;whiteSpace=wrap;connectable=0;overflow=hidden;fillColor=none;top=0;left=0;bottom=0;right=0;fontColor=#B3B3B3;align=left;" parent="ibFiL1Bw5MCaEzBGAbg2-293" vertex="1">
          <mxGeometry x="425" width="138" height="39" as="geometry" />
        </mxCell>
        <mxCell id="ibFiL1Bw5MCaEzBGAbg2-298" value="" style="shape=partialRectangle;html=1;whiteSpace=wrap;collapsible=0;dropTarget=0;pointerEvents=0;fillColor=none;top=0;left=0;bottom=0;right=0;points=[[0,0.5],[1,0.5]];portConstraint=eastwest;fontColor=#B3B3B3;" parent="ibFiL1Bw5MCaEzBGAbg2-287" vertex="1">
          <mxGeometry y="79" width="562.6427071401296" height="35" as="geometry" />
        </mxCell>
        <mxCell id="ibFiL1Bw5MCaEzBGAbg2-299" style="shape=partialRectangle;html=1;whiteSpace=wrap;connectable=0;overflow=hidden;fillColor=none;top=0;left=0;bottom=0;right=0;align=left;fontColor=#B3B3B3;" parent="ibFiL1Bw5MCaEzBGAbg2-298" vertex="1">
          <mxGeometry width="69" height="35" as="geometry" />
        </mxCell>
        <mxCell id="ibFiL1Bw5MCaEzBGAbg2-300" value="February 28, 2021" style="shape=partialRectangle;html=1;whiteSpace=wrap;connectable=0;overflow=hidden;fillColor=none;top=0;left=0;bottom=0;right=0;align=left;fontColor=#B3B3B3;" parent="ibFiL1Bw5MCaEzBGAbg2-298" vertex="1">
          <mxGeometry x="69" width="118" height="35" as="geometry" />
        </mxCell>
        <mxCell id="ibFiL1Bw5MCaEzBGAbg2-301" value="Library of Records" style="shape=partialRectangle;html=1;whiteSpace=wrap;connectable=0;overflow=hidden;fillColor=none;top=0;left=0;bottom=0;right=0;fontColor=#B3B3B3;align=left;" parent="ibFiL1Bw5MCaEzBGAbg2-298" vertex="1">
          <mxGeometry x="187" width="238" height="35" as="geometry" />
        </mxCell>
        <mxCell id="ibFiL1Bw5MCaEzBGAbg2-302" value="Chris O.&amp;nbsp;" style="shape=partialRectangle;html=1;whiteSpace=wrap;connectable=0;overflow=hidden;fillColor=none;top=0;left=0;bottom=0;right=0;fontColor=#B3B3B3;align=left;" parent="ibFiL1Bw5MCaEzBGAbg2-298" vertex="1">
          <mxGeometry x="425" width="138" height="35" as="geometry" />
        </mxCell>
        <mxCell id="ibFiL1Bw5MCaEzBGAbg2-303" value="" style="shape=partialRectangle;html=1;whiteSpace=wrap;collapsible=0;dropTarget=0;pointerEvents=0;fillColor=none;top=0;left=0;bottom=0;right=0;points=[[0,0.5],[1,0.5]];portConstraint=eastwest;fontColor=#B3B3B3;" parent="ibFiL1Bw5MCaEzBGAbg2-287" vertex="1">
          <mxGeometry y="114" width="562.6427071401296" height="34" as="geometry" />
        </mxCell>
        <mxCell id="ibFiL1Bw5MCaEzBGAbg2-304" style="shape=partialRectangle;html=1;whiteSpace=wrap;connectable=0;overflow=hidden;fillColor=none;top=0;left=0;bottom=0;right=0;align=left;fontColor=#B3B3B3;" parent="ibFiL1Bw5MCaEzBGAbg2-303" vertex="1">
          <mxGeometry width="69" height="34" as="geometry" />
        </mxCell>
        <mxCell id="ibFiL1Bw5MCaEzBGAbg2-305" value="March 15, 2021" style="shape=partialRectangle;html=1;whiteSpace=wrap;connectable=0;overflow=hidden;fillColor=none;top=0;left=0;bottom=0;right=0;align=left;fontColor=#B3B3B3;" parent="ibFiL1Bw5MCaEzBGAbg2-303" vertex="1">
          <mxGeometry x="69" width="118" height="34" as="geometry" />
        </mxCell>
        <mxCell id="ibFiL1Bw5MCaEzBGAbg2-306" value="Who&#39;s Who" style="shape=partialRectangle;html=1;whiteSpace=wrap;connectable=0;overflow=hidden;fillColor=none;top=0;left=0;bottom=0;right=0;fontColor=#B3B3B3;align=left;" parent="ibFiL1Bw5MCaEzBGAbg2-303" vertex="1">
          <mxGeometry x="187" width="238" height="34" as="geometry" />
        </mxCell>
        <mxCell id="ibFiL1Bw5MCaEzBGAbg2-307" value="Daniel K." style="shape=partialRectangle;html=1;whiteSpace=wrap;connectable=0;overflow=hidden;fillColor=none;top=0;left=0;bottom=0;right=0;fontColor=#B3B3B3;align=left;" parent="ibFiL1Bw5MCaEzBGAbg2-303" vertex="1">
          <mxGeometry x="425" width="138" height="34" as="geometry" />
        </mxCell>
        <mxCell id="ibFiL1Bw5MCaEzBGAbg2-308" style="shape=partialRectangle;html=1;whiteSpace=wrap;collapsible=0;dropTarget=0;pointerEvents=0;fillColor=none;top=0;left=0;bottom=0;right=0;points=[[0,0.5],[1,0.5]];portConstraint=eastwest;fontColor=#B3B3B3;" parent="ibFiL1Bw5MCaEzBGAbg2-287" vertex="1">
          <mxGeometry y="148" width="562.6427071401296" height="33" as="geometry" />
        </mxCell>
        <mxCell id="ibFiL1Bw5MCaEzBGAbg2-309" style="shape=partialRectangle;html=1;whiteSpace=wrap;connectable=0;overflow=hidden;fillColor=none;top=0;left=0;bottom=0;right=0;align=left;fontColor=#B3B3B3;" parent="ibFiL1Bw5MCaEzBGAbg2-308" vertex="1">
          <mxGeometry width="69" height="33" as="geometry" />
        </mxCell>
        <mxCell id="ibFiL1Bw5MCaEzBGAbg2-310" value="March 18, 2021" style="shape=partialRectangle;html=1;whiteSpace=wrap;connectable=0;overflow=hidden;fillColor=none;top=0;left=0;bottom=0;right=0;align=left;fontColor=#B3B3B3;" parent="ibFiL1Bw5MCaEzBGAbg2-308" vertex="1">
          <mxGeometry x="69" width="118" height="33" as="geometry" />
        </mxCell>
        <mxCell id="ibFiL1Bw5MCaEzBGAbg2-311" value="Where in the World is Carmen Sandiego" style="shape=partialRectangle;html=1;whiteSpace=wrap;connectable=0;overflow=hidden;fillColor=none;top=0;left=0;bottom=0;right=0;fontColor=#B3B3B3;align=left;" parent="ibFiL1Bw5MCaEzBGAbg2-308" vertex="1">
          <mxGeometry x="187" width="238" height="33" as="geometry" />
        </mxCell>
        <mxCell id="ibFiL1Bw5MCaEzBGAbg2-312" value="Daniel K." style="shape=partialRectangle;html=1;whiteSpace=wrap;connectable=0;overflow=hidden;fillColor=none;top=0;left=0;bottom=0;right=0;fontColor=#B3B3B3;align=left;" parent="ibFiL1Bw5MCaEzBGAbg2-308" vertex="1">
          <mxGeometry x="425" width="138" height="33" as="geometry" />
        </mxCell>
        <mxCell id="ibFiL1Bw5MCaEzBGAbg2-313" style="shape=partialRectangle;html=1;whiteSpace=wrap;collapsible=0;dropTarget=0;pointerEvents=0;fillColor=none;top=0;left=0;bottom=0;right=0;points=[[0,0.5],[1,0.5]];portConstraint=eastwest;fontColor=#B3B3B3;" parent="ibFiL1Bw5MCaEzBGAbg2-287" vertex="1">
          <mxGeometry y="181" width="562.6427071401296" height="36" as="geometry" />
        </mxCell>
        <mxCell id="ibFiL1Bw5MCaEzBGAbg2-314" style="shape=partialRectangle;html=1;whiteSpace=wrap;connectable=0;overflow=hidden;fillColor=none;top=0;left=0;bottom=0;right=0;align=left;fontColor=#B3B3B3;" parent="ibFiL1Bw5MCaEzBGAbg2-313" vertex="1">
          <mxGeometry width="69" height="36" as="geometry" />
        </mxCell>
        <mxCell id="ibFiL1Bw5MCaEzBGAbg2-315" value="March 25, 2021" style="shape=partialRectangle;html=1;whiteSpace=wrap;connectable=0;overflow=hidden;fillColor=none;top=0;left=0;bottom=0;right=0;align=left;fontColor=#B3B3B3;" parent="ibFiL1Bw5MCaEzBGAbg2-313" vertex="1">
          <mxGeometry x="69" width="118" height="36" as="geometry" />
        </mxCell>
        <mxCell id="ibFiL1Bw5MCaEzBGAbg2-316" value="Health O-Matic" style="shape=partialRectangle;html=1;whiteSpace=wrap;connectable=0;overflow=hidden;fillColor=none;top=0;left=0;bottom=0;right=0;fontColor=#B3B3B3;align=left;" parent="ibFiL1Bw5MCaEzBGAbg2-313" vertex="1">
          <mxGeometry x="187" width="238" height="36" as="geometry" />
        </mxCell>
        <mxCell id="ibFiL1Bw5MCaEzBGAbg2-317" value="Larry K." style="shape=partialRectangle;html=1;whiteSpace=wrap;connectable=0;overflow=hidden;fillColor=none;top=0;left=0;bottom=0;right=0;fontColor=#B3B3B3;align=left;" parent="ibFiL1Bw5MCaEzBGAbg2-313" vertex="1">
          <mxGeometry x="425" width="138" height="36" as="geometry" />
        </mxCell>
        <mxCell id="ibFiL1Bw5MCaEzBGAbg2-318" value="" style="pointerEvents=1;shadow=0;dashed=0;html=1;strokeColor=none;labelPosition=center;verticalLabelPosition=bottom;verticalAlign=top;align=center;outlineConnect=0;shape=mxgraph.veeam2.critical;fontSize=14;fontColor=#FFFFFF;fillColor=#FF0000;" parent="ibFiL1Bw5MCaEzBGAbg2-280" vertex="1">
          <mxGeometry x="30" y="133.00314769975805" width="21" height="19.053658536585385" as="geometry" />
        </mxCell>
        <mxCell id="ibFiL1Bw5MCaEzBGAbg2-319" value="" style="shape=image;html=1;verticalAlign=top;verticalLabelPosition=bottom;labelBackgroundColor=#ffffff;imageAspect=0;aspect=fixed;image=https://cdn4.iconfinder.com/data/icons/the-weather-is-nice-today/64/weather_48-128.png" parent="ibFiL1Bw5MCaEzBGAbg2-280" vertex="1">
          <mxGeometry x="26" y="164" width="30" height="30" as="geometry" />
        </mxCell>
        <mxCell id="ibFiL1Bw5MCaEzBGAbg2-320" value="Optional Cards" style="text;html=1;strokeColor=none;fillColor=none;align=center;verticalAlign=middle;whiteSpace=wrap;rounded=0;" parent="ibFiL1Bw5MCaEzBGAbg2-1" vertex="1">
          <mxGeometry x="2132" y="102" width="141" height="20" as="geometry" />
        </mxCell>
        <mxCell id="ibFiL1Bw5MCaEzBGAbg2-321" value="" style="shape=rect;strokeColor=#eeeeee;shadow=1;fillColor=#FFFFFF;" parent="ibFiL1Bw5MCaEzBGAbg2-1" vertex="1">
          <mxGeometry x="2158" y="575" width="581" height="372" as="geometry" />
        </mxCell>
        <mxCell id="ibFiL1Bw5MCaEzBGAbg2-322" value="" style="shape=rect;strokeColor=#eeeeee;fillColor=#ffffff;resizeWidth=1;" parent="ibFiL1Bw5MCaEzBGAbg2-321" vertex="1">
          <mxGeometry width="560.0360824742269" height="70" relative="1" as="geometry" />
        </mxCell>
        <mxCell id="ibFiL1Bw5MCaEzBGAbg2-323" value="Actions- Overdue (1)" style="text;fontSize=18;fontColor=#0288D1;fontStyle=1" parent="ibFiL1Bw5MCaEzBGAbg2-322" vertex="1">
          <mxGeometry width="235" height="20" relative="1" as="geometry">
            <mxPoint x="65" y="22" as="offset" />
          </mxGeometry>
        </mxCell>
        <mxCell id="ibFiL1Bw5MCaEzBGAbg2-324" value="" style="shape=image;html=1;verticalAlign=top;verticalLabelPosition=bottom;labelBackgroundColor=#ffffff;imageAspect=0;aspect=fixed;image=https://cdn4.iconfinder.com/data/icons/essential-app-2/16/calendar-book-date-monthly-128.png;fillColor=#000000;" parent="ibFiL1Bw5MCaEzBGAbg2-322" vertex="1">
          <mxGeometry x="14" y="18" width="40" height="40" as="geometry" />
        </mxCell>
        <mxCell id="ibFiL1Bw5MCaEzBGAbg2-325" value="" style="shape=rect;strokeColor=#eeeeee;fillColor=#ffffff;;whiteSpace=wrap;align=left;spacingLeft=16;fontColor=#666666;verticalAlign=top;spacingTop=10;fontSize=13;spacingRight=16;" parent="ibFiL1Bw5MCaEzBGAbg2-321" vertex="1">
          <mxGeometry y="246.03174603174622" width="560.0360824742269" height="125.96825396825416" as="geometry" />
        </mxCell>
        <mxCell id="ibFiL1Bw5MCaEzBGAbg2-326" value="" style="shape=rect;strokeColor=#eeeeee;fillColor=#ffffff;;whiteSpace=wrap;align=left;spacingLeft=14;fontColor=#BDBDBD;resizeWidth=1;" parent="ibFiL1Bw5MCaEzBGAbg2-321" vertex="1">
          <mxGeometry y="1" width="560.0360824742269" height="48" relative="1" as="geometry">
            <mxPoint y="-48" as="offset" />
          </mxGeometry>
        </mxCell>
        <mxCell id="ibFiL1Bw5MCaEzBGAbg2-327" value="OPEN" style="shape=rect;strokeColor=none;fillColor=#0288D1;fontColor=#FFFFFF;fontSize=13;fontStyle=1;" parent="ibFiL1Bw5MCaEzBGAbg2-326" vertex="1">
          <mxGeometry x="1" y="1" width="70" height="36" relative="1" as="geometry">
            <mxPoint x="-75" y="-42" as="offset" />
          </mxGeometry>
        </mxCell>
        <mxCell id="ibFiL1Bw5MCaEzBGAbg2-328" value="" style="shape=table;html=1;whiteSpace=wrap;startSize=0;container=1;collapsible=0;childLayout=tableLayout;shadow=0;strokeColor=none;fontColor=#0288D1;" parent="ibFiL1Bw5MCaEzBGAbg2-321" vertex="1">
          <mxGeometry x="10.981099656357388" y="82.86682808716708" width="562.6427071401296" height="216.7015886139491" as="geometry" />
        </mxCell>
        <mxCell id="ibFiL1Bw5MCaEzBGAbg2-329" value="" style="shape=partialRectangle;html=1;whiteSpace=wrap;collapsible=0;dropTarget=0;pointerEvents=0;fillColor=none;top=0;left=0;bottom=0;right=0;points=[[0,0.5],[1,0.5]];portConstraint=eastwest;" parent="ibFiL1Bw5MCaEzBGAbg2-328" vertex="1">
          <mxGeometry width="562.6427071401296" height="40" as="geometry" />
        </mxCell>
        <mxCell id="ibFiL1Bw5MCaEzBGAbg2-330" value="Status" style="shape=partialRectangle;html=1;whiteSpace=wrap;connectable=0;overflow=hidden;top=0;left=0;bottom=0;right=0;strokeColor=#666666;align=left;fontStyle=1;fontSize=14;fillColor=#0288D1;fontColor=#FFFFFF;" parent="ibFiL1Bw5MCaEzBGAbg2-329" vertex="1">
          <mxGeometry width="69" height="40" as="geometry" />
        </mxCell>
        <mxCell id="ibFiL1Bw5MCaEzBGAbg2-331" value="Due Date" style="shape=partialRectangle;html=1;whiteSpace=wrap;connectable=0;overflow=hidden;top=0;left=0;bottom=0;right=0;strokeColor=#666666;align=left;fontStyle=1;fontSize=14;fillColor=#0288D1;fontColor=#FFFFFF;" parent="ibFiL1Bw5MCaEzBGAbg2-329" vertex="1">
          <mxGeometry x="69" width="118" height="40" as="geometry" />
        </mxCell>
        <mxCell id="ibFiL1Bw5MCaEzBGAbg2-332" value="System" style="shape=partialRectangle;html=1;whiteSpace=wrap;connectable=0;overflow=hidden;top=0;left=0;bottom=0;right=0;strokeColor=#666666;fontStyle=1;fontSize=14;fillColor=#0288D1;fontColor=#FFFFFF;align=left;" parent="ibFiL1Bw5MCaEzBGAbg2-329" vertex="1">
          <mxGeometry x="187" width="238" height="40" as="geometry" />
        </mxCell>
        <mxCell id="ibFiL1Bw5MCaEzBGAbg2-333" value="Assignee" style="shape=partialRectangle;html=1;whiteSpace=wrap;connectable=0;overflow=hidden;top=0;left=0;bottom=0;right=0;strokeColor=#666666;fontStyle=1;fontSize=14;fillColor=#0288D1;fontColor=#FFFFFF;align=left;" parent="ibFiL1Bw5MCaEzBGAbg2-329" vertex="1">
          <mxGeometry x="425" width="138" height="40" as="geometry" />
        </mxCell>
        <mxCell id="ibFiL1Bw5MCaEzBGAbg2-334" value="" style="shape=partialRectangle;html=1;whiteSpace=wrap;collapsible=0;dropTarget=0;pointerEvents=0;fillColor=none;top=0;left=0;bottom=0;right=0;points=[[0,0.5],[1,0.5]];portConstraint=eastwest;fontColor=#B3B3B3;" parent="ibFiL1Bw5MCaEzBGAbg2-328" vertex="1">
          <mxGeometry y="40" width="562.6427071401296" height="39" as="geometry" />
        </mxCell>
        <mxCell id="ibFiL1Bw5MCaEzBGAbg2-335" style="shape=partialRectangle;html=1;whiteSpace=wrap;connectable=0;overflow=hidden;fillColor=none;top=0;left=0;bottom=0;right=0;align=left;fontColor=#B3B3B3;" parent="ibFiL1Bw5MCaEzBGAbg2-334" vertex="1">
          <mxGeometry width="69" height="39" as="geometry" />
        </mxCell>
        <mxCell id="ibFiL1Bw5MCaEzBGAbg2-336" value="January 10, 2021" style="shape=partialRectangle;html=1;whiteSpace=wrap;connectable=0;overflow=hidden;fillColor=none;top=0;left=0;bottom=0;right=0;align=left;fontColor=#B3B3B3;" parent="ibFiL1Bw5MCaEzBGAbg2-334" vertex="1">
          <mxGeometry x="69" width="118" height="39" as="geometry" />
        </mxCell>
        <mxCell id="ibFiL1Bw5MCaEzBGAbg2-337" value="Secret Squirrel Alliance" style="shape=partialRectangle;html=1;whiteSpace=wrap;connectable=0;overflow=hidden;fillColor=none;top=0;left=0;bottom=0;right=0;fontColor=#B3B3B3;align=left;" parent="ibFiL1Bw5MCaEzBGAbg2-334" vertex="1">
          <mxGeometry x="187" width="238" height="39" as="geometry" />
        </mxCell>
        <mxCell id="ibFiL1Bw5MCaEzBGAbg2-338" value="Lisa G." style="shape=partialRectangle;html=1;whiteSpace=wrap;connectable=0;overflow=hidden;fillColor=none;top=0;left=0;bottom=0;right=0;fontColor=#B3B3B3;align=left;" parent="ibFiL1Bw5MCaEzBGAbg2-334" vertex="1">
          <mxGeometry x="425" width="138" height="39" as="geometry" />
        </mxCell>
        <mxCell id="ibFiL1Bw5MCaEzBGAbg2-339" value="" style="shape=partialRectangle;html=1;whiteSpace=wrap;collapsible=0;dropTarget=0;pointerEvents=0;fillColor=none;top=0;left=0;bottom=0;right=0;points=[[0,0.5],[1,0.5]];portConstraint=eastwest;fontColor=#B3B3B3;" parent="ibFiL1Bw5MCaEzBGAbg2-328" vertex="1">
          <mxGeometry y="79" width="562.6427071401296" height="35" as="geometry" />
        </mxCell>
        <mxCell id="ibFiL1Bw5MCaEzBGAbg2-340" style="shape=partialRectangle;html=1;whiteSpace=wrap;connectable=0;overflow=hidden;fillColor=none;top=0;left=0;bottom=0;right=0;align=left;fontColor=#B3B3B3;" parent="ibFiL1Bw5MCaEzBGAbg2-339" vertex="1">
          <mxGeometry width="69" height="35" as="geometry" />
        </mxCell>
        <mxCell id="ibFiL1Bw5MCaEzBGAbg2-341" value="" style="shape=partialRectangle;html=1;whiteSpace=wrap;connectable=0;overflow=hidden;fillColor=none;top=0;left=0;bottom=0;right=0;align=left;fontColor=#B3B3B3;" parent="ibFiL1Bw5MCaEzBGAbg2-339" vertex="1">
          <mxGeometry x="69" width="118" height="35" as="geometry" />
        </mxCell>
        <mxCell id="ibFiL1Bw5MCaEzBGAbg2-342" value="" style="shape=partialRectangle;html=1;whiteSpace=wrap;connectable=0;overflow=hidden;fillColor=none;top=0;left=0;bottom=0;right=0;fontColor=#B3B3B3;align=left;" parent="ibFiL1Bw5MCaEzBGAbg2-339" vertex="1">
          <mxGeometry x="187" width="238" height="35" as="geometry" />
        </mxCell>
        <mxCell id="ibFiL1Bw5MCaEzBGAbg2-343" value="" style="shape=partialRectangle;html=1;whiteSpace=wrap;connectable=0;overflow=hidden;fillColor=none;top=0;left=0;bottom=0;right=0;fontColor=#B3B3B3;align=left;" parent="ibFiL1Bw5MCaEzBGAbg2-339" vertex="1">
          <mxGeometry x="425" width="138" height="35" as="geometry" />
        </mxCell>
        <mxCell id="ibFiL1Bw5MCaEzBGAbg2-344" value="" style="shape=partialRectangle;html=1;whiteSpace=wrap;collapsible=0;dropTarget=0;pointerEvents=0;fillColor=none;top=0;left=0;bottom=0;right=0;points=[[0,0.5],[1,0.5]];portConstraint=eastwest;fontColor=#B3B3B3;" parent="ibFiL1Bw5MCaEzBGAbg2-328" vertex="1">
          <mxGeometry y="114" width="562.6427071401296" height="34" as="geometry" />
        </mxCell>
        <mxCell id="ibFiL1Bw5MCaEzBGAbg2-345" style="shape=partialRectangle;html=1;whiteSpace=wrap;connectable=0;overflow=hidden;fillColor=none;top=0;left=0;bottom=0;right=0;align=left;fontColor=#B3B3B3;" parent="ibFiL1Bw5MCaEzBGAbg2-344" vertex="1">
          <mxGeometry width="69" height="34" as="geometry" />
        </mxCell>
        <mxCell id="ibFiL1Bw5MCaEzBGAbg2-346" value="" style="shape=partialRectangle;html=1;whiteSpace=wrap;connectable=0;overflow=hidden;fillColor=none;top=0;left=0;bottom=0;right=0;align=left;fontColor=#B3B3B3;" parent="ibFiL1Bw5MCaEzBGAbg2-344" vertex="1">
          <mxGeometry x="69" width="118" height="34" as="geometry" />
        </mxCell>
        <mxCell id="ibFiL1Bw5MCaEzBGAbg2-347" value="" style="shape=partialRectangle;html=1;whiteSpace=wrap;connectable=0;overflow=hidden;fillColor=none;top=0;left=0;bottom=0;right=0;fontColor=#B3B3B3;align=left;" parent="ibFiL1Bw5MCaEzBGAbg2-344" vertex="1">
          <mxGeometry x="187" width="238" height="34" as="geometry" />
        </mxCell>
        <mxCell id="ibFiL1Bw5MCaEzBGAbg2-348" value="" style="shape=partialRectangle;html=1;whiteSpace=wrap;connectable=0;overflow=hidden;fillColor=none;top=0;left=0;bottom=0;right=0;fontColor=#B3B3B3;align=left;" parent="ibFiL1Bw5MCaEzBGAbg2-344" vertex="1">
          <mxGeometry x="425" width="138" height="34" as="geometry" />
        </mxCell>
        <mxCell id="ibFiL1Bw5MCaEzBGAbg2-349" style="shape=partialRectangle;html=1;whiteSpace=wrap;collapsible=0;dropTarget=0;pointerEvents=0;fillColor=none;top=0;left=0;bottom=0;right=0;points=[[0,0.5],[1,0.5]];portConstraint=eastwest;fontColor=#B3B3B3;" parent="ibFiL1Bw5MCaEzBGAbg2-328" vertex="1">
          <mxGeometry y="148" width="562.6427071401296" height="33" as="geometry" />
        </mxCell>
        <mxCell id="ibFiL1Bw5MCaEzBGAbg2-350" style="shape=partialRectangle;html=1;whiteSpace=wrap;connectable=0;overflow=hidden;fillColor=none;top=0;left=0;bottom=0;right=0;align=left;fontColor=#B3B3B3;" parent="ibFiL1Bw5MCaEzBGAbg2-349" vertex="1">
          <mxGeometry width="69" height="33" as="geometry" />
        </mxCell>
        <mxCell id="ibFiL1Bw5MCaEzBGAbg2-351" value="" style="shape=partialRectangle;html=1;whiteSpace=wrap;connectable=0;overflow=hidden;fillColor=none;top=0;left=0;bottom=0;right=0;align=left;fontColor=#B3B3B3;" parent="ibFiL1Bw5MCaEzBGAbg2-349" vertex="1">
          <mxGeometry x="69" width="118" height="33" as="geometry" />
        </mxCell>
        <mxCell id="ibFiL1Bw5MCaEzBGAbg2-352" value="" style="shape=partialRectangle;html=1;whiteSpace=wrap;connectable=0;overflow=hidden;fillColor=none;top=0;left=0;bottom=0;right=0;fontColor=#B3B3B3;align=left;" parent="ibFiL1Bw5MCaEzBGAbg2-349" vertex="1">
          <mxGeometry x="187" width="238" height="33" as="geometry" />
        </mxCell>
        <mxCell id="ibFiL1Bw5MCaEzBGAbg2-353" value="" style="shape=partialRectangle;html=1;whiteSpace=wrap;connectable=0;overflow=hidden;fillColor=none;top=0;left=0;bottom=0;right=0;fontColor=#B3B3B3;align=left;" parent="ibFiL1Bw5MCaEzBGAbg2-349" vertex="1">
          <mxGeometry x="425" width="138" height="33" as="geometry" />
        </mxCell>
        <mxCell id="ibFiL1Bw5MCaEzBGAbg2-354" style="shape=partialRectangle;html=1;whiteSpace=wrap;collapsible=0;dropTarget=0;pointerEvents=0;fillColor=none;top=0;left=0;bottom=0;right=0;points=[[0,0.5],[1,0.5]];portConstraint=eastwest;fontColor=#B3B3B3;" parent="ibFiL1Bw5MCaEzBGAbg2-328" vertex="1">
          <mxGeometry y="181" width="562.6427071401296" height="36" as="geometry" />
        </mxCell>
        <mxCell id="ibFiL1Bw5MCaEzBGAbg2-355" style="shape=partialRectangle;html=1;whiteSpace=wrap;connectable=0;overflow=hidden;fillColor=none;top=0;left=0;bottom=0;right=0;align=left;fontColor=#B3B3B3;" parent="ibFiL1Bw5MCaEzBGAbg2-354" vertex="1">
          <mxGeometry width="69" height="36" as="geometry" />
        </mxCell>
        <mxCell id="ibFiL1Bw5MCaEzBGAbg2-356" value="" style="shape=partialRectangle;html=1;whiteSpace=wrap;connectable=0;overflow=hidden;fillColor=none;top=0;left=0;bottom=0;right=0;align=left;fontColor=#B3B3B3;" parent="ibFiL1Bw5MCaEzBGAbg2-354" vertex="1">
          <mxGeometry x="69" width="118" height="36" as="geometry" />
        </mxCell>
        <mxCell id="ibFiL1Bw5MCaEzBGAbg2-357" value="" style="shape=partialRectangle;html=1;whiteSpace=wrap;connectable=0;overflow=hidden;fillColor=none;top=0;left=0;bottom=0;right=0;fontColor=#B3B3B3;align=left;" parent="ibFiL1Bw5MCaEzBGAbg2-354" vertex="1">
          <mxGeometry x="187" width="238" height="36" as="geometry" />
        </mxCell>
        <mxCell id="ibFiL1Bw5MCaEzBGAbg2-358" value="" style="shape=partialRectangle;html=1;whiteSpace=wrap;connectable=0;overflow=hidden;fillColor=none;top=0;left=0;bottom=0;right=0;fontColor=#B3B3B3;align=left;" parent="ibFiL1Bw5MCaEzBGAbg2-354" vertex="1">
          <mxGeometry x="425" width="138" height="36" as="geometry" />
        </mxCell>
        <mxCell id="ibFiL1Bw5MCaEzBGAbg2-359" value="" style="pointerEvents=1;shadow=0;dashed=0;html=1;strokeColor=none;labelPosition=center;verticalLabelPosition=bottom;verticalAlign=top;align=center;outlineConnect=0;shape=mxgraph.veeam2.critical;fontSize=14;fontColor=#FFFFFF;fillColor=#FF0000;" parent="ibFiL1Bw5MCaEzBGAbg2-321" vertex="1">
          <mxGeometry x="28" y="133.00314769975805" width="21" height="19.053658536585385" as="geometry" />
        </mxCell>
        <mxCell id="ibFiL1Bw5MCaEzBGAbg2-360" value="" style="shape=rect;strokeColor=#eeeeee;shadow=1;fillColor=#FFFFFF;" parent="ibFiL1Bw5MCaEzBGAbg2-1" vertex="1">
          <mxGeometry x="2158" y="986" width="581" height="372" as="geometry" />
        </mxCell>
        <mxCell id="ibFiL1Bw5MCaEzBGAbg2-361" value="" style="shape=rect;strokeColor=#eeeeee;fillColor=#ffffff;resizeWidth=1;" parent="ibFiL1Bw5MCaEzBGAbg2-360" vertex="1">
          <mxGeometry width="560.0360824742269" height="70" relative="1" as="geometry" />
        </mxCell>
        <mxCell id="ibFiL1Bw5MCaEzBGAbg2-362" value="Systems - Step One" style="text;fontSize=18;fontColor=#0288D1;fontStyle=1" parent="ibFiL1Bw5MCaEzBGAbg2-361" vertex="1">
          <mxGeometry width="235" height="20" relative="1" as="geometry">
            <mxPoint x="65" y="22" as="offset" />
          </mxGeometry>
        </mxCell>
        <mxCell id="ibFiL1Bw5MCaEzBGAbg2-363" value="" style="shape=image;html=1;verticalAlign=top;verticalLabelPosition=bottom;labelBackgroundColor=#ffffff;imageAspect=0;aspect=fixed;image=https://cdn4.iconfinder.com/data/icons/essential-app-2/16/calendar-book-date-monthly-128.png;fillColor=#000000;" parent="ibFiL1Bw5MCaEzBGAbg2-361" vertex="1">
          <mxGeometry x="14" y="18" width="40" height="40" as="geometry" />
        </mxCell>
        <mxCell id="ibFiL1Bw5MCaEzBGAbg2-364" value="" style="shape=rect;strokeColor=#eeeeee;fillColor=#ffffff;;whiteSpace=wrap;align=left;spacingLeft=16;fontColor=#666666;verticalAlign=top;spacingTop=10;fontSize=13;spacingRight=16;" parent="ibFiL1Bw5MCaEzBGAbg2-360" vertex="1">
          <mxGeometry y="246.03174603174622" width="560.0360824742269" height="125.96825396825416" as="geometry" />
        </mxCell>
        <mxCell id="ibFiL1Bw5MCaEzBGAbg2-365" value="" style="shape=rect;strokeColor=#eeeeee;fillColor=#ffffff;;whiteSpace=wrap;align=left;spacingLeft=14;fontColor=#BDBDBD;resizeWidth=1;" parent="ibFiL1Bw5MCaEzBGAbg2-360" vertex="1">
          <mxGeometry y="1" width="560.0360824742269" height="48" relative="1" as="geometry">
            <mxPoint y="-48" as="offset" />
          </mxGeometry>
        </mxCell>
        <mxCell id="ibFiL1Bw5MCaEzBGAbg2-366" value="OPEN" style="shape=rect;strokeColor=none;fillColor=#0288D1;fontColor=#FFFFFF;fontSize=13;fontStyle=1;" parent="ibFiL1Bw5MCaEzBGAbg2-365" vertex="1">
          <mxGeometry x="1" y="1" width="70" height="36" relative="1" as="geometry">
            <mxPoint x="-75" y="-42" as="offset" />
          </mxGeometry>
        </mxCell>
        <mxCell id="ibFiL1Bw5MCaEzBGAbg2-367" value="" style="shape=table;html=1;whiteSpace=wrap;startSize=0;container=1;collapsible=0;childLayout=tableLayout;shadow=0;strokeColor=none;fontColor=#0288D1;" parent="ibFiL1Bw5MCaEzBGAbg2-360" vertex="1">
          <mxGeometry x="10.981099656357388" y="82.86682808716708" width="562.6427071401296" height="216.7015886139491" as="geometry" />
        </mxCell>
        <mxCell id="ibFiL1Bw5MCaEzBGAbg2-368" value="" style="shape=partialRectangle;html=1;whiteSpace=wrap;collapsible=0;dropTarget=0;pointerEvents=0;fillColor=none;top=0;left=0;bottom=0;right=0;points=[[0,0.5],[1,0.5]];portConstraint=eastwest;" parent="ibFiL1Bw5MCaEzBGAbg2-367" vertex="1">
          <mxGeometry width="562.6427071401296" height="40" as="geometry" />
        </mxCell>
        <mxCell id="ibFiL1Bw5MCaEzBGAbg2-369" value="Create Date" style="shape=partialRectangle;html=1;whiteSpace=wrap;connectable=0;overflow=hidden;top=0;left=0;bottom=0;right=0;strokeColor=#666666;align=left;fontStyle=1;fontSize=14;fillColor=#0288D1;fontColor=#FFFFFF;" parent="ibFiL1Bw5MCaEzBGAbg2-368" vertex="1">
          <mxGeometry width="101" height="40" as="geometry" />
        </mxCell>
        <mxCell id="ibFiL1Bw5MCaEzBGAbg2-370" value="Due Date" style="shape=partialRectangle;html=1;whiteSpace=wrap;connectable=0;overflow=hidden;top=0;left=0;bottom=0;right=0;strokeColor=#666666;align=left;fontStyle=1;fontSize=14;fillColor=#0288D1;fontColor=#FFFFFF;" parent="ibFiL1Bw5MCaEzBGAbg2-368" vertex="1">
          <mxGeometry x="101" width="106" height="40" as="geometry" />
        </mxCell>
        <mxCell id="ibFiL1Bw5MCaEzBGAbg2-371" value="System" style="shape=partialRectangle;html=1;whiteSpace=wrap;connectable=0;overflow=hidden;top=0;left=0;bottom=0;right=0;strokeColor=#666666;fontStyle=1;fontSize=14;fillColor=#0288D1;fontColor=#FFFFFF;align=left;" parent="ibFiL1Bw5MCaEzBGAbg2-368" vertex="1">
          <mxGeometry x="207" width="218" height="40" as="geometry" />
        </mxCell>
        <mxCell id="ibFiL1Bw5MCaEzBGAbg2-372" value="Assignee" style="shape=partialRectangle;html=1;whiteSpace=wrap;connectable=0;overflow=hidden;top=0;left=0;bottom=0;right=0;strokeColor=#666666;fontStyle=1;fontSize=14;fillColor=#0288D1;fontColor=#FFFFFF;align=left;" parent="ibFiL1Bw5MCaEzBGAbg2-368" vertex="1">
          <mxGeometry x="425" width="138" height="40" as="geometry" />
        </mxCell>
        <mxCell id="ibFiL1Bw5MCaEzBGAbg2-373" value="" style="shape=partialRectangle;html=1;whiteSpace=wrap;collapsible=0;dropTarget=0;pointerEvents=0;fillColor=none;top=0;left=0;bottom=0;right=0;points=[[0,0.5],[1,0.5]];portConstraint=eastwest;fontColor=#B3B3B3;" parent="ibFiL1Bw5MCaEzBGAbg2-367" vertex="1">
          <mxGeometry y="40" width="562.6427071401296" height="39" as="geometry" />
        </mxCell>
        <mxCell id="ibFiL1Bw5MCaEzBGAbg2-374" value="January 10, 2021" style="shape=partialRectangle;html=1;whiteSpace=wrap;connectable=0;overflow=hidden;fillColor=none;top=0;left=0;bottom=0;right=0;align=left;fontColor=#B3B3B3;" parent="ibFiL1Bw5MCaEzBGAbg2-373" vertex="1">
          <mxGeometry width="101" height="39" as="geometry" />
        </mxCell>
        <mxCell id="ibFiL1Bw5MCaEzBGAbg2-375" value="April 15, 2021" style="shape=partialRectangle;html=1;whiteSpace=wrap;connectable=0;overflow=hidden;fillColor=none;top=0;left=0;bottom=0;right=0;align=left;fontColor=#B3B3B3;" parent="ibFiL1Bw5MCaEzBGAbg2-373" vertex="1">
          <mxGeometry x="101" width="106" height="39" as="geometry" />
        </mxCell>
        <mxCell id="ibFiL1Bw5MCaEzBGAbg2-376" value="Secret Squirrel Alliance" style="shape=partialRectangle;html=1;whiteSpace=wrap;connectable=0;overflow=hidden;fillColor=none;top=0;left=0;bottom=0;right=0;fontColor=#B3B3B3;align=left;" parent="ibFiL1Bw5MCaEzBGAbg2-373" vertex="1">
          <mxGeometry x="207" width="218" height="39" as="geometry" />
        </mxCell>
        <mxCell id="ibFiL1Bw5MCaEzBGAbg2-377" value="----------" style="shape=partialRectangle;html=1;whiteSpace=wrap;connectable=0;overflow=hidden;fillColor=none;top=0;left=0;bottom=0;right=0;fontColor=#B3B3B3;align=left;" parent="ibFiL1Bw5MCaEzBGAbg2-373" vertex="1">
          <mxGeometry x="425" width="138" height="39" as="geometry" />
        </mxCell>
        <mxCell id="ibFiL1Bw5MCaEzBGAbg2-378" value="" style="shape=partialRectangle;html=1;whiteSpace=wrap;collapsible=0;dropTarget=0;pointerEvents=0;fillColor=none;top=0;left=0;bottom=0;right=0;points=[[0,0.5],[1,0.5]];portConstraint=eastwest;fontColor=#B3B3B3;" parent="ibFiL1Bw5MCaEzBGAbg2-367" vertex="1">
          <mxGeometry y="79" width="562.6427071401296" height="35" as="geometry" />
        </mxCell>
        <mxCell id="ibFiL1Bw5MCaEzBGAbg2-379" value="January 15, 2021" style="shape=partialRectangle;html=1;whiteSpace=wrap;connectable=0;overflow=hidden;fillColor=none;top=0;left=0;bottom=0;right=0;align=left;fontColor=#B3B3B3;" parent="ibFiL1Bw5MCaEzBGAbg2-378" vertex="1">
          <mxGeometry width="101" height="35" as="geometry" />
        </mxCell>
        <mxCell id="ibFiL1Bw5MCaEzBGAbg2-380" value="April 20, 2021" style="shape=partialRectangle;html=1;whiteSpace=wrap;connectable=0;overflow=hidden;fillColor=none;top=0;left=0;bottom=0;right=0;align=left;fontColor=#B3B3B3;" parent="ibFiL1Bw5MCaEzBGAbg2-378" vertex="1">
          <mxGeometry x="101" width="106" height="35" as="geometry" />
        </mxCell>
        <mxCell id="ibFiL1Bw5MCaEzBGAbg2-381" value="Spotify" style="shape=partialRectangle;html=1;whiteSpace=wrap;connectable=0;overflow=hidden;fillColor=none;top=0;left=0;bottom=0;right=0;fontColor=#B3B3B3;align=left;" parent="ibFiL1Bw5MCaEzBGAbg2-378" vertex="1">
          <mxGeometry x="207" width="218" height="35" as="geometry" />
        </mxCell>
        <mxCell id="ibFiL1Bw5MCaEzBGAbg2-382" value="----------" style="shape=partialRectangle;html=1;whiteSpace=wrap;connectable=0;overflow=hidden;fillColor=none;top=0;left=0;bottom=0;right=0;fontColor=#B3B3B3;align=left;" parent="ibFiL1Bw5MCaEzBGAbg2-378" vertex="1">
          <mxGeometry x="425" width="138" height="35" as="geometry" />
        </mxCell>
        <mxCell id="ibFiL1Bw5MCaEzBGAbg2-383" value="" style="shape=partialRectangle;html=1;whiteSpace=wrap;collapsible=0;dropTarget=0;pointerEvents=0;fillColor=none;top=0;left=0;bottom=0;right=0;points=[[0,0.5],[1,0.5]];portConstraint=eastwest;fontColor=#B3B3B3;" parent="ibFiL1Bw5MCaEzBGAbg2-367" vertex="1">
          <mxGeometry y="114" width="562.6427071401296" height="34" as="geometry" />
        </mxCell>
        <mxCell id="ibFiL1Bw5MCaEzBGAbg2-384" value="January 18, 2021" style="shape=partialRectangle;html=1;whiteSpace=wrap;connectable=0;overflow=hidden;fillColor=none;top=0;left=0;bottom=0;right=0;align=left;fontColor=#B3B3B3;" parent="ibFiL1Bw5MCaEzBGAbg2-383" vertex="1">
          <mxGeometry width="101" height="34" as="geometry" />
        </mxCell>
        <mxCell id="ibFiL1Bw5MCaEzBGAbg2-385" value="April 23, 2021" style="shape=partialRectangle;html=1;whiteSpace=wrap;connectable=0;overflow=hidden;fillColor=none;top=0;left=0;bottom=0;right=0;align=left;fontColor=#B3B3B3;" parent="ibFiL1Bw5MCaEzBGAbg2-383" vertex="1">
          <mxGeometry x="101" width="106" height="34" as="geometry" />
        </mxCell>
        <mxCell id="ibFiL1Bw5MCaEzBGAbg2-386" value="Pandora" style="shape=partialRectangle;html=1;whiteSpace=wrap;connectable=0;overflow=hidden;fillColor=none;top=0;left=0;bottom=0;right=0;fontColor=#B3B3B3;align=left;" parent="ibFiL1Bw5MCaEzBGAbg2-383" vertex="1">
          <mxGeometry x="207" width="218" height="34" as="geometry" />
        </mxCell>
        <mxCell id="ibFiL1Bw5MCaEzBGAbg2-387" value="Lisa G.&amp;nbsp;" style="shape=partialRectangle;html=1;whiteSpace=wrap;connectable=0;overflow=hidden;fillColor=none;top=0;left=0;bottom=0;right=0;fontColor=#B3B3B3;align=left;" parent="ibFiL1Bw5MCaEzBGAbg2-383" vertex="1">
          <mxGeometry x="425" width="138" height="34" as="geometry" />
        </mxCell>
        <mxCell id="ibFiL1Bw5MCaEzBGAbg2-388" style="shape=partialRectangle;html=1;whiteSpace=wrap;collapsible=0;dropTarget=0;pointerEvents=0;fillColor=none;top=0;left=0;bottom=0;right=0;points=[[0,0.5],[1,0.5]];portConstraint=eastwest;fontColor=#B3B3B3;" parent="ibFiL1Bw5MCaEzBGAbg2-367" vertex="1">
          <mxGeometry y="148" width="562.6427071401296" height="33" as="geometry" />
        </mxCell>
        <mxCell id="ibFiL1Bw5MCaEzBGAbg2-389" style="shape=partialRectangle;html=1;whiteSpace=wrap;connectable=0;overflow=hidden;fillColor=none;top=0;left=0;bottom=0;right=0;align=left;fontColor=#B3B3B3;" parent="ibFiL1Bw5MCaEzBGAbg2-388" vertex="1">
          <mxGeometry width="101" height="33" as="geometry" />
        </mxCell>
        <mxCell id="ibFiL1Bw5MCaEzBGAbg2-390" value="" style="shape=partialRectangle;html=1;whiteSpace=wrap;connectable=0;overflow=hidden;fillColor=none;top=0;left=0;bottom=0;right=0;align=left;fontColor=#B3B3B3;" parent="ibFiL1Bw5MCaEzBGAbg2-388" vertex="1">
          <mxGeometry x="101" width="106" height="33" as="geometry" />
        </mxCell>
        <mxCell id="ibFiL1Bw5MCaEzBGAbg2-391" value="" style="shape=partialRectangle;html=1;whiteSpace=wrap;connectable=0;overflow=hidden;fillColor=none;top=0;left=0;bottom=0;right=0;fontColor=#B3B3B3;align=left;" parent="ibFiL1Bw5MCaEzBGAbg2-388" vertex="1">
          <mxGeometry x="207" width="218" height="33" as="geometry" />
        </mxCell>
        <mxCell id="ibFiL1Bw5MCaEzBGAbg2-392" value="" style="shape=partialRectangle;html=1;whiteSpace=wrap;connectable=0;overflow=hidden;fillColor=none;top=0;left=0;bottom=0;right=0;fontColor=#B3B3B3;align=left;" parent="ibFiL1Bw5MCaEzBGAbg2-388" vertex="1">
          <mxGeometry x="425" width="138" height="33" as="geometry" />
        </mxCell>
        <mxCell id="ibFiL1Bw5MCaEzBGAbg2-393" style="shape=partialRectangle;html=1;whiteSpace=wrap;collapsible=0;dropTarget=0;pointerEvents=0;fillColor=none;top=0;left=0;bottom=0;right=0;points=[[0,0.5],[1,0.5]];portConstraint=eastwest;fontColor=#B3B3B3;" parent="ibFiL1Bw5MCaEzBGAbg2-367" vertex="1">
          <mxGeometry y="181" width="562.6427071401296" height="36" as="geometry" />
        </mxCell>
        <mxCell id="ibFiL1Bw5MCaEzBGAbg2-394" style="shape=partialRectangle;html=1;whiteSpace=wrap;connectable=0;overflow=hidden;fillColor=none;top=0;left=0;bottom=0;right=0;align=left;fontColor=#B3B3B3;" parent="ibFiL1Bw5MCaEzBGAbg2-393" vertex="1">
          <mxGeometry width="101" height="36" as="geometry" />
        </mxCell>
        <mxCell id="ibFiL1Bw5MCaEzBGAbg2-395" value="" style="shape=partialRectangle;html=1;whiteSpace=wrap;connectable=0;overflow=hidden;fillColor=none;top=0;left=0;bottom=0;right=0;align=left;fontColor=#B3B3B3;" parent="ibFiL1Bw5MCaEzBGAbg2-393" vertex="1">
          <mxGeometry x="101" width="106" height="36" as="geometry" />
        </mxCell>
        <mxCell id="ibFiL1Bw5MCaEzBGAbg2-396" value="" style="shape=partialRectangle;html=1;whiteSpace=wrap;connectable=0;overflow=hidden;fillColor=none;top=0;left=0;bottom=0;right=0;fontColor=#B3B3B3;align=left;" parent="ibFiL1Bw5MCaEzBGAbg2-393" vertex="1">
          <mxGeometry x="207" width="218" height="36" as="geometry" />
        </mxCell>
        <mxCell id="ibFiL1Bw5MCaEzBGAbg2-397" value="" style="shape=partialRectangle;html=1;whiteSpace=wrap;connectable=0;overflow=hidden;fillColor=none;top=0;left=0;bottom=0;right=0;fontColor=#B3B3B3;align=left;" parent="ibFiL1Bw5MCaEzBGAbg2-393" vertex="1">
          <mxGeometry x="425" width="138" height="36" as="geometry" />
        </mxCell>
        <mxCell id="ibFiL1Bw5MCaEzBGAbg2-398" value="&amp;nbsp;by individual&lt;br style=&quot;font-size: 20px&quot;&gt;actions or by &lt;br&gt;systems&lt;br&gt;&amp;nbsp;as a whole" style="ellipse;shape=cloud;whiteSpace=wrap;html=1;fontSize=20;" parent="ibFiL1Bw5MCaEzBGAbg2-1" vertex="1">
          <mxGeometry x="360" y="978.5" width="250" height="249" as="geometry" />
        </mxCell>
      </root>
    </mxGraphModel>
  </diagram>
</mxfile>
